Armada-Compressed_Thin.ufo
<glyph name="space" format="1">
  <advance width="43"/>
  <unicode hex="0020"/>
  <outline>
    <contour>
      <point x="4" y="0" type="move"/>
    </contour>
  </outline>
</glyph>
<glyph name="exclam" format="1">
  <advance width="46"/>
  <unicode hex="0021"/>
  <outline>
    <contour>
      <point x="28" y="133" type="line"/>
      <point x="18" y="133" type="line"/>
      <point x="18" y="720" type="line"/>
      <point x="28" y="720" type="line"/>
    </contour>
    <contour>
      <point x="28" y="0" type="line"/>
      <point x="18" y="0" type="line"/>
      <point x="18" y="88" type="line"/>
      <point x="28" y="88" type="line"/>
    </contour>
  </outline>
</glyph>
<glyph name="quotedbl" format="1">
  <advance width="76"/>
  <unicode hex="0022"/>
  <outline>
    <contour>
      <point x="60" y="495" type="line"/>
      <point x="50" y="495" type="line"/>
      <point x="50" y="720" type="line"/>
      <point x="60" y="720" type="line"/>
    </contour>
    <contour>
      <point x="26" y="495" type="line"/>
      <point x="16" y="495" type="line"/>
      <point x="16" y="720" type="line"/>
      <point x="26" y="720" type="line"/>
    </contour>
  </outline>
</glyph>
<glyph name="numbersign" format="1">
  <advance width="88"/>
  <unicode hex="0023"/>
  <outline>
    <contour>
      <point x="79" y="240" type="line"/>
      <point x="69" y="240" type="line"/>
      <point x="69" y="0" type="line"/>
      <point x="59" y="0" type="line"/>
      <point x="59" y="240" type="line"/>
      <point x="29" y="240" type="line"/>
      <point x="29" y="0" type="line"/>
      <point x="19" y="0" type="line"/>
      <point x="19" y="240" type="line"/>
      <point x="9" y="240" type="line"/>
      <point x="9" y="249" type="line"/>
      <point x="19" y="249" type="line"/>
      <point x="19" y="471" type="line"/>
      <point x="9" y="471" type="line"/>
      <point x="9" y="480" type="line"/>
      <point x="19" y="480" type="line"/>
      <point x="19" y="720" type="line"/>
      <point x="29" y="720" type="line"/>
      <point x="29" y="480" type="line"/>
      <point x="59" y="480" type="line"/>
      <point x="59" y="720" type="line"/>
      <point x="69" y="720" type="line"/>
      <point x="69" y="480" type="line"/>
      <point x="79" y="480" type="line"/>
      <point x="79" y="471" type="line"/>
      <point x="69" y="471" type="line"/>
      <point x="69" y="249" type="line"/>
      <point x="79" y="249" type="line"/>
    </contour>
    <contour>
      <point x="59" y="249" type="line"/>
      <point x="59" y="471" type="line"/>
      <point x="29" y="471" type="line"/>
      <point x="29" y="249" type="line"/>
    </contour>
  </outline>
</glyph>
<glyph name="dollar" format="1">
  <advance width="83"/>
  <unicode hex="0024"/>
  <outline>
    <contour>
      <point x="67" y="7" type="line"/>
      <point x="61" y="3"/>
      <point x="55" y="1"/>
      <point x="47" y="0" type="curve"/>
      <point x="47" y="-55" type="line"/>
      <point x="37" y="-55" type="line"/>
      <point x="37" y="0" type="line"/>
      <point x="29" y="1"/>
      <point x="23" y="3"/>
      <point x="17" y="7" type="curve"/>
      <point x="17" y="275" type="line"/>
      <point x="27" y="275" type="line"/>
      <point x="27" y="13" type="line"/>
      <point x="31" y="10"/>
      <point x="37" y="9"/>
      <point x="42" y="9" type="curve" smooth="yes"/>
      <point x="47" y="9"/>
      <point x="54" y="10"/>
      <point x="57" y="13" type="curve"/>
      <point x="57" y="275" type="line"/>
      <point x="17" y="446" type="line"/>
      <point x="17" y="713" type="line"/>
      <point x="23" y="717"/>
      <point x="29" y="719"/>
      <point x="37" y="720" type="curve"/>
      <point x="37" y="775" type="line"/>
      <point x="47" y="775" type="line"/>
      <point x="47" y="720" type="line"/>
      <point x="55" y="719"/>
      <point x="61" y="717"/>
      <point x="67" y="713" type="curve"/>
      <point x="67" y="445" type="line"/>
      <point x="57" y="445" type="line"/>
      <point x="57" y="707" type="line"/>
      <point x="53" y="710"/>
      <point x="47" y="711"/>
      <point x="42" y="711" type="curve" smooth="yes"/>
      <point x="37" y="711"/>
      <point x="31" y="710"/>
      <point x="27" y="707" type="curve"/>
      <point x="27" y="446" type="line"/>
      <point x="67" y="275" type="line"/>
    </contour>
  </outline>
</glyph>
<glyph name="percent" format="1">
  <advance width="167"/>
  <unicode hex="0025"/>
  <outline>
    <contour>
      <point x="64" y="355" type="line"/>
      <point x="57" y="350"/>
      <point x="48" y="348"/>
      <point x="40" y="348" type="curve" smooth="yes"/>
      <point x="32" y="348"/>
      <point x="23" y="350"/>
      <point x="16" y="355" type="curve"/>
      <point x="16" y="715" type="line"/>
      <point x="23" y="720"/>
      <point x="32" y="722"/>
      <point x="40" y="722" type="curve" smooth="yes"/>
      <point x="48" y="722"/>
      <point x="57" y="720"/>
      <point x="64" y="715" type="curve"/>
    </contour>
    <contour>
      <point x="112" y="720" type="line"/>
      <point x="65" y="0" type="line"/>
      <point x="55" y="0" type="line"/>
      <point x="102" y="720" type="line"/>
    </contour>
    <contour>
      <point x="151" y="5" type="line"/>
      <point x="144" y="0"/>
      <point x="135" y="-2"/>
      <point x="127" y="-2" type="curve" smooth="yes"/>
      <point x="119" y="-2"/>
      <point x="110" y="0"/>
      <point x="103" y="5" type="curve"/>
      <point x="103" y="365" type="line"/>
      <point x="110" y="370"/>
      <point x="119" y="372"/>
      <point x="127" y="372" type="curve" smooth="yes"/>
      <point x="135" y="372"/>
      <point x="144" y="370"/>
      <point x="151" y="365" type="curve"/>
    </contour>
    <contour>
      <point x="54" y="361" type="curve"/>
      <point x="54" y="709" type="line"/>
      <point x="50" y="712"/>
      <point x="45" y="713"/>
      <point x="40" y="713" type="curve" smooth="yes"/>
      <point x="35" y="713"/>
      <point x="30" y="712"/>
      <point x="26" y="709" type="curve"/>
      <point x="26" y="361" type="line"/>
      <point x="30" y="358"/>
      <point x="35" y="357"/>
      <point x="40" y="357" type="curve" smooth="yes"/>
      <point x="45" y="357"/>
      <point x="50" y="358"/>
    </contour>
    <contour>
      <point x="141" y="11" type="curve"/>
      <point x="141" y="359" type="line"/>
      <point x="137" y="362"/>
      <point x="132" y="363"/>
      <point x="127" y="363" type="curve" smooth="yes"/>
      <point x="122" y="363"/>
      <point x="117" y="362"/>
      <point x="113" y="359" type="curve"/>
      <point x="113" y="11" type="line"/>
      <point x="117" y="8"/>
      <point x="122" y="7"/>
      <point x="127" y="7" type="curve" smooth="yes"/>
      <point x="132" y="7"/>
      <point x="137" y="8"/>
    </contour>
  </outline>
</glyph>
<glyph name="ampersand" format="1">
  <advance width="86"/>
  <unicode hex="0026"/>
  <outline>
    <contour>
      <point x="77" y="366" type="line"/>
      <point x="67" y="366" type="line"/>
      <point x="67" y="5" type="line"/>
      <point x="60" y="0"/>
      <point x="52" y="-2"/>
      <point x="42" y="-2" type="curve" smooth="yes"/>
      <point x="32" y="-2"/>
      <point x="24" y="0"/>
      <point x="17" y="5" type="curve"/>
      <point x="17" y="354" type="line"/>
      <point x="22" y="362"/>
      <point x="29" y="368"/>
      <point x="38" y="371" type="curve"/>
      <point x="29" y="374"/>
      <point x="22" y="380"/>
      <point x="17" y="388" type="curve"/>
      <point x="17" y="715" type="line"/>
      <point x="24" y="720"/>
      <point x="32" y="722"/>
      <point x="42" y="722" type="curve" smooth="yes"/>
      <point x="52" y="722"/>
      <point x="60" y="720"/>
      <point x="67" y="715" type="curve"/>
      <point x="67" y="445" type="line"/>
      <point x="57" y="445" type="line"/>
      <point x="57" y="709" type="line"/>
      <point x="53" y="712"/>
      <point x="47" y="713"/>
      <point x="42" y="713" type="curve" smooth="yes"/>
      <point x="37" y="713"/>
      <point x="31" y="712"/>
      <point x="27" y="709" type="curve"/>
      <point x="27" y="389" type="line"/>
      <point x="35" y="378"/>
      <point x="45" y="375"/>
      <point x="53" y="375" type="curve" smooth="yes"/>
      <point x="77" y="375" type="line"/>
    </contour>
    <contour>
      <point x="57" y="11" type="curve"/>
      <point x="57" y="366" type="line"/>
      <point x="53" y="366" type="line" smooth="yes"/>
      <point x="45" y="366"/>
      <point x="35" y="364"/>
      <point x="27" y="352" type="curve"/>
      <point x="27" y="11" type="line"/>
      <point x="31" y="8"/>
      <point x="37" y="7"/>
      <point x="42" y="7" type="curve" smooth="yes"/>
      <point x="47" y="7"/>
      <point x="53" y="8"/>
    </contour>
  </outline>
</glyph>
<glyph name="quotesingle" format="1">
  <advance width="42"/>
  <unicode hex="0027"/>
  <outline>
    <contour>
      <point x="26" y="495" type="line"/>
      <point x="16" y="495" type="line"/>
      <point x="16" y="720" type="line"/>
      <point x="26" y="720" type="line"/>
    </contour>
  </outline>
</glyph>
<glyph name="parenleft" format="1">
  <advance width="60"/>
  <unicode hex="0028"/>
  <outline>
    <contour>
      <point x="52" y="0" type="line"/>
      <point x="35" y="0"/>
      <point x="26" y="3"/>
      <point x="17" y="15" type="curve"/>
      <point x="17" y="705" type="line"/>
      <point x="26" y="717"/>
      <point x="35" y="720"/>
      <point x="52" y="720" type="curve"/>
      <point x="52" y="711" type="line"/>
      <point x="40" y="711"/>
      <point x="32" y="709"/>
      <point x="27" y="701" type="curve"/>
      <point x="27" y="19" type="line"/>
      <point x="32" y="11"/>
      <point x="40" y="9"/>
      <point x="52" y="9" type="curve"/>
    </contour>
  </outline>
</glyph>
<glyph name="parenright" format="1">
  <advance width="60"/>
  <unicode hex="0029"/>
  <outline>
    <contour>
      <point x="43" y="15" type="line"/>
      <point x="34" y="3"/>
      <point x="25" y="0"/>
      <point x="8" y="0" type="curve"/>
      <point x="8" y="9" type="line"/>
      <point x="20" y="9"/>
      <point x="28" y="11"/>
      <point x="33" y="19" type="curve"/>
      <point x="33" y="701" type="line"/>
      <point x="28" y="709"/>
      <point x="20" y="711"/>
      <point x="8" y="711" type="curve"/>
      <point x="8" y="720" type="line"/>
      <point x="25" y="720"/>
      <point x="34" y="717"/>
      <point x="43" y="705" type="curve"/>
    </contour>
  </outline>
</glyph>
<glyph name="asterisk" format="1">
  <advance width="92"/>
  <unicode hex="002A"/>
  <outline>
    <contour>
      <point x="78" y="388" type="line"/>
      <point x="68" y="388" type="line"/>
      <point x="68" y="506" type="line"/>
      <point x="65" y="511"/>
      <point x="58" y="516"/>
      <point x="51" y="518" type="curve"/>
      <point x="51" y="327" type="line"/>
      <point x="41" y="327" type="line"/>
      <point x="41" y="518" type="line"/>
      <point x="34" y="516"/>
      <point x="27" y="511"/>
      <point x="24" y="506" type="curve"/>
      <point x="24" y="388" type="line"/>
      <point x="14" y="388" type="line"/>
      <point x="14" y="509" type="line"/>
      <point x="19" y="515"/>
      <point x="26" y="521"/>
      <point x="35" y="524" type="curve"/>
      <point x="26" y="527"/>
      <point x="19" y="533"/>
      <point x="14" y="539" type="curve"/>
      <point x="14" y="661" type="line"/>
      <point x="24" y="661" type="line"/>
      <point x="24" y="542" type="line"/>
      <point x="27" y="537"/>
      <point x="34" y="532"/>
      <point x="41" y="530" type="curve"/>
      <point x="41" y="722" type="line"/>
      <point x="51" y="722" type="line"/>
      <point x="51" y="530" type="line"/>
      <point x="58" y="532"/>
      <point x="65" y="537"/>
      <point x="68" y="542" type="curve"/>
      <point x="68" y="661" type="line"/>
      <point x="78" y="661" type="line"/>
      <point x="78" y="539" type="line"/>
      <point x="73" y="533"/>
      <point x="66" y="527"/>
      <point x="57" y="524" type="curve"/>
      <point x="66" y="521"/>
      <point x="73" y="515"/>
      <point x="78" y="509" type="curve"/>
    </contour>
  </outline>
</glyph>
<glyph name="plus" format="1">
  <advance width="63"/>
  <unicode hex="002B"/>
  <outline>
    <contour>
      <point x="56" y="370" type="line"/>
      <point x="37" y="370" type="line"/>
      <point x="37" y="241" type="line"/>
      <point x="27" y="241" type="line"/>
      <point x="27" y="370" type="line"/>
      <point x="8" y="370" type="line"/>
      <point x="8" y="378" type="line"/>
      <point x="27" y="378" type="line"/>
      <point x="27" y="500" type="line"/>
      <point x="37" y="500" type="line"/>
      <point x="37" y="378" type="line"/>
      <point x="56" y="378" type="line"/>
    </contour>
  </outline>
</glyph>
<glyph name="comma" format="1">
  <advance width="42"/>
  <unicode hex="002C"/>
  <outline>
    <contour>
      <point x="30" y="88" type="line"/>
      <point x="18" y="-45" type="line"/>
      <point x="8" y="-45" type="line"/>
      <point x="20" y="88" type="line"/>
    </contour>
  </outline>
</glyph>
<glyph name="hyphen" format="1">
  <advance width="48"/>
  <unicode hex="002D"/>
  <unicode hex="2010"/>
  <unicode hex="2011"/>
  <outline>
    <contour>
      <point x="40" y="315" type="line"/>
      <point x="8" y="315" type="line"/>
      <point x="8" y="324" type="line"/>
      <point x="40" y="324" type="line"/>
    </contour>
  </outline>
</glyph>
<glyph name="period" format="1">
  <advance width="42"/>
  <unicode hex="002E"/>
  <outline>
    <contour>
      <point x="26" y="0" type="line"/>
      <point x="16" y="0" type="line"/>
      <point x="16" y="88" type="line"/>
      <point x="26" y="88" type="line"/>
    </contour>
  </outline>
</glyph>
<glyph name="slash" format="1">
  <advance width="61"/>
  <unicode hex="002F"/>
  <outline>
    <contour>
      <point x="49" y="720" type="line"/>
      <point x="22" y="0" type="line"/>
      <point x="12" y="0" type="line"/>
      <point x="39" y="720" type="line"/>
    </contour>
  </outline>
</glyph>
<glyph name="zero" format="1">
  <advance width="83"/>
  <unicode hex="0030"/>
  <outline>
    <contour>
      <point x="67" y="5" type="line"/>
      <point x="60" y="0"/>
      <point x="52" y="-2"/>
      <point x="42" y="-2" type="curve" smooth="yes"/>
      <point x="32" y="-2"/>
      <point x="24" y="0"/>
      <point x="17" y="5" type="curve"/>
      <point x="17" y="715" type="line"/>
      <point x="24" y="720"/>
      <point x="32" y="722"/>
      <point x="42" y="722" type="curve" smooth="yes"/>
      <point x="52" y="722"/>
      <point x="60" y="720"/>
      <point x="67" y="715" type="curve"/>
    </contour>
    <contour>
      <point x="57" y="11" type="curve"/>
      <point x="57" y="709" type="line"/>
      <point x="53" y="712"/>
      <point x="47" y="713"/>
      <point x="42" y="713" type="curve" smooth="yes"/>
      <point x="37" y="713"/>
      <point x="31" y="712"/>
      <point x="27" y="709" type="curve"/>
      <point x="27" y="11" type="line"/>
      <point x="31" y="8"/>
      <point x="37" y="7"/>
      <point x="42" y="7" type="curve" smooth="yes"/>
      <point x="47" y="7"/>
      <point x="53" y="8"/>
    </contour>
  </outline>
</glyph>
<glyph name="one" format="1">
  <advance width="53"/>
  <unicode hex="0031"/>
  <outline>
    <contour>
      <point x="48" y="0" type="line"/>
      <point x="8" y="0" type="line"/>
      <point x="8" y="9" type="line"/>
      <point x="23" y="9" type="line"/>
      <point x="23" y="711" type="line"/>
      <point x="8" y="711" type="line"/>
      <point x="8" y="720" type="line"/>
      <point x="33" y="720" type="line"/>
      <point x="33" y="9" type="line"/>
      <point x="48" y="9" type="line"/>
    </contour>
  </outline>
</glyph>
<glyph name="two" format="1">
  <advance width="81"/>
  <unicode hex="0032"/>
  <outline>
    <contour>
      <point x="66" y="0" type="line"/>
      <point x="16" y="0" type="line"/>
      <point x="16" y="9" type="line"/>
      <point x="56" y="446" type="line"/>
      <point x="56" y="709" type="line"/>
      <point x="52" y="712"/>
      <point x="46" y="713"/>
      <point x="41" y="713" type="curve" smooth="yes"/>
      <point x="36" y="713"/>
      <point x="30" y="712"/>
      <point x="26" y="709" type="curve"/>
      <point x="26" y="445" type="line"/>
      <point x="16" y="445" type="line"/>
      <point x="16" y="715" type="line"/>
      <point x="23" y="720"/>
      <point x="31" y="722"/>
      <point x="41" y="722" type="curve" smooth="yes"/>
      <point x="51" y="722"/>
      <point x="59" y="720"/>
      <point x="66" y="715" type="curve"/>
      <point x="66" y="446" type="line"/>
      <point x="26" y="9" type="line"/>
      <point x="26" y="9" type="line"/>
      <point x="66" y="9" type="line"/>
    </contour>
  </outline>
</glyph>
<glyph name="three" format="1">
  <advance width="83"/>
  <unicode hex="0033"/>
  <outline>
    <contour>
      <point x="67" y="5" type="line"/>
      <point x="60" y="0"/>
      <point x="52" y="-2"/>
      <point x="42" y="-2" type="curve" smooth="yes"/>
      <point x="32" y="-2"/>
      <point x="24" y="0"/>
      <point x="17" y="5" type="curve"/>
      <point x="17" y="275" type="line"/>
      <point x="27" y="275" type="line"/>
      <point x="27" y="11" type="line"/>
      <point x="31" y="8"/>
      <point x="37" y="7"/>
      <point x="42" y="7" type="curve" smooth="yes"/>
      <point x="47" y="7"/>
      <point x="53" y="8"/>
      <point x="57" y="11" type="curve"/>
      <point x="57" y="352" type="line"/>
      <point x="49" y="364"/>
      <point x="39" y="366"/>
      <point x="31" y="366" type="curve" smooth="yes"/>
      <point x="27" y="366" type="line"/>
      <point x="27" y="375" type="line"/>
      <point x="31" y="375" type="line" smooth="yes"/>
      <point x="39" y="375"/>
      <point x="49" y="378"/>
      <point x="57" y="389" type="curve"/>
      <point x="57" y="709" type="line"/>
      <point x="53" y="712"/>
      <point x="47" y="713"/>
      <point x="42" y="713" type="curve" smooth="yes"/>
      <point x="37" y="713"/>
      <point x="31" y="712"/>
      <point x="27" y="709" type="curve"/>
      <point x="27" y="445" type="line"/>
      <point x="17" y="445" type="line"/>
      <point x="17" y="715" type="line"/>
      <point x="24" y="720"/>
      <point x="32" y="722"/>
      <point x="42" y="722" type="curve" smooth="yes"/>
      <point x="52" y="722"/>
      <point x="60" y="720"/>
      <point x="67" y="715" type="curve"/>
      <point x="67" y="388" type="line"/>
      <point x="62" y="380"/>
      <point x="55" y="374"/>
      <point x="46" y="371" type="curve"/>
      <point x="55" y="368"/>
      <point x="62" y="362"/>
      <point x="67" y="354" type="curve"/>
    </contour>
  </outline>
</glyph>
<glyph name="four" format="1">
  <advance width="83"/>
  <unicode hex="0034"/>
  <outline>
    <contour>
      <point x="67" y="0" type="line"/>
      <point x="57" y="0" type="line"/>
      <point x="57" y="235" type="line"/>
      <point x="17" y="235" type="line"/>
      <point x="17" y="720" type="line"/>
      <point x="27" y="720" type="line"/>
      <point x="27" y="244" type="line"/>
      <point x="57" y="244" type="line"/>
      <point x="57" y="720" type="line"/>
      <point x="67" y="720" type="line"/>
    </contour>
  </outline>
</glyph>
<glyph name="five" format="1">
  <advance width="83"/>
  <unicode hex="0035"/>
  <outline>
    <contour>
      <point x="67" y="5" type="line"/>
      <point x="60" y="0"/>
      <point x="52" y="-2"/>
      <point x="42" y="-2" type="curve" smooth="yes"/>
      <point x="32" y="-2"/>
      <point x="24" y="0"/>
      <point x="17" y="5" type="curve"/>
      <point x="17" y="275" type="line"/>
      <point x="27" y="275" type="line"/>
      <point x="27" y="11" type="line"/>
      <point x="31" y="8"/>
      <point x="37" y="7"/>
      <point x="42" y="7" type="curve" smooth="yes"/>
      <point x="47" y="7"/>
      <point x="53" y="8"/>
      <point x="57" y="11" type="curve"/>
      <point x="57" y="362" type="line"/>
      <point x="54" y="365"/>
      <point x="49" y="366"/>
      <point x="42" y="366" type="curve" smooth="yes"/>
      <point x="17" y="366" type="line"/>
      <point x="17" y="720" type="line"/>
      <point x="67" y="720" type="line"/>
      <point x="67" y="711" type="line"/>
      <point x="27" y="711" type="line"/>
      <point x="27" y="375" type="line"/>
      <point x="44" y="375" type="line" smooth="yes"/>
      <point x="55" y="375"/>
      <point x="62" y="372"/>
      <point x="67" y="367" type="curve"/>
    </contour>
  </outline>
</glyph>
<glyph name="six" format="1">
  <advance width="83"/>
  <unicode hex="0036"/>
  <outline>
    <contour>
      <point x="67" y="5" type="line"/>
      <point x="60" y="0"/>
      <point x="52" y="-2"/>
      <point x="42" y="-2" type="curve" smooth="yes"/>
      <point x="32" y="-2"/>
      <point x="24" y="0"/>
      <point x="17" y="5" type="curve"/>
      <point x="17" y="715" type="line"/>
      <point x="24" y="720"/>
      <point x="32" y="722"/>
      <point x="42" y="722" type="curve" smooth="yes"/>
      <point x="52" y="722"/>
      <point x="60" y="720"/>
      <point x="67" y="715" type="curve"/>
      <point x="67" y="445" type="line"/>
      <point x="57" y="445" type="line"/>
      <point x="57" y="709" type="line"/>
      <point x="53" y="712"/>
      <point x="47" y="713"/>
      <point x="42" y="713" type="curve" smooth="yes"/>
      <point x="37" y="713"/>
      <point x="31" y="712"/>
      <point x="27" y="709" type="curve"/>
      <point x="27" y="372" type="line"/>
      <point x="32" y="374"/>
      <point x="37" y="375"/>
      <point x="44" y="375" type="curve" smooth="yes"/>
      <point x="52" y="375"/>
      <point x="61" y="373"/>
      <point x="67" y="368" type="curve"/>
    </contour>
    <contour>
      <point x="57" y="11" type="curve"/>
      <point x="57" y="362" type="line"/>
      <point x="53" y="365"/>
      <point x="47" y="366"/>
      <point x="42" y="366" type="curve" smooth="yes"/>
      <point x="37" y="366"/>
      <point x="31" y="365"/>
      <point x="27" y="362" type="curve"/>
      <point x="27" y="11" type="line"/>
      <point x="31" y="8"/>
      <point x="37" y="7"/>
      <point x="42" y="7" type="curve" smooth="yes"/>
      <point x="47" y="7"/>
      <point x="53" y="8"/>
    </contour>
  </outline>
</glyph>
<glyph name="seven" format="1">
  <advance width="66"/>
  <unicode hex="0037"/>
  <outline>
    <contour>
      <point x="52" y="711" type="line"/>
      <point x="34" y="0" type="line"/>
      <point x="24" y="0" type="line"/>
      <point x="42" y="711" type="line"/>
      <point x="7" y="711" type="line"/>
      <point x="7" y="720" type="line"/>
      <point x="52" y="720" type="line"/>
    </contour>
  </outline>
</glyph>
<glyph name="eight" format="1">
  <advance width="83"/>
  <unicode hex="0038"/>
  <outline>
    <contour>
      <point x="67" y="5" type="line"/>
      <point x="60" y="0"/>
      <point x="52" y="-2"/>
      <point x="42" y="-2" type="curve" smooth="yes"/>
      <point x="32" y="-2"/>
      <point x="24" y="0"/>
      <point x="17" y="5" type="curve"/>
      <point x="17" y="361" type="line"/>
      <point x="21" y="365"/>
      <point x="24" y="367"/>
      <point x="30" y="370" type="curve"/>
      <point x="24" y="373"/>
      <point x="21" y="375"/>
      <point x="17" y="379" type="curve"/>
      <point x="17" y="715" type="line"/>
      <point x="24" y="720"/>
      <point x="32" y="722"/>
      <point x="42" y="722" type="curve" smooth="yes"/>
      <point x="52" y="722"/>
      <point x="60" y="720"/>
      <point x="67" y="715" type="curve"/>
      <point x="67" y="379" type="line"/>
      <point x="63" y="375"/>
      <point x="60" y="373"/>
      <point x="54" y="370" type="curve"/>
      <point x="60" y="367"/>
      <point x="63" y="365"/>
      <point x="67" y="361" type="curve"/>
    </contour>
    <contour>
      <point x="57" y="382" type="curve"/>
      <point x="57" y="709" type="line"/>
      <point x="53" y="712"/>
      <point x="47" y="713"/>
      <point x="42" y="713" type="curve" smooth="yes"/>
      <point x="37" y="713"/>
      <point x="31" y="712"/>
      <point x="27" y="709" type="curve"/>
      <point x="27" y="382" type="line"/>
      <point x="30" y="378"/>
      <point x="36" y="375"/>
      <point x="42" y="375" type="curve" smooth="yes"/>
      <point x="48" y="375"/>
      <point x="54" y="378"/>
    </contour>
    <contour>
      <point x="57" y="11" type="curve"/>
      <point x="57" y="358" type="line"/>
      <point x="54" y="362"/>
      <point x="48" y="365"/>
      <point x="42" y="365" type="curve" smooth="yes"/>
      <point x="36" y="365"/>
      <point x="30" y="362"/>
      <point x="27" y="358" type="curve"/>
      <point x="27" y="11" type="line"/>
      <point x="31" y="8"/>
      <point x="37" y="7"/>
      <point x="42" y="7" type="curve" smooth="yes"/>
      <point x="47" y="7"/>
      <point x="53" y="8"/>
    </contour>
  </outline>
</glyph>
<glyph name="colon" format="1">
  <advance width="42"/>
  <unicode hex="003A"/>
  <outline>
    <contour>
      <point x="26" y="392" type="line"/>
      <point x="16" y="392" type="line"/>
      <point x="16" y="480" type="line"/>
      <point x="26" y="480" type="line"/>
    </contour>
    <contour>
      <point x="26" y="0" type="line"/>
      <point x="16" y="0" type="line"/>
      <point x="16" y="88" type="line"/>
      <point x="26" y="88" type="line"/>
    </contour>
  </outline>
</glyph>
<glyph name="semicolon" format="1">
  <advance width="42"/>
  <unicode hex="003B"/>
  <outline>
    <contour>
      <point x="26" y="392" type="line"/>
      <point x="16" y="392" type="line"/>
      <point x="16" y="480" type="line"/>
      <point x="26" y="480" type="line"/>
    </contour>
    <contour>
      <point x="30" y="88" type="line"/>
      <point x="18" y="-45" type="line"/>
      <point x="8" y="-45" type="line"/>
      <point x="20" y="88" type="line"/>
    </contour>
  </outline>
</glyph>
<glyph name="less" format="1">
  <advance width="55"/>
  <unicode hex="003C"/>
  <outline>
    <contour>
      <point x="47" y="191" type="line"/>
      <point x="7" y="364" type="line"/>
      <point x="7" y="384" type="line"/>
      <point x="47" y="557" type="line"/>
      <point x="47" y="520" type="line"/>
      <point x="15" y="374" type="line"/>
      <point x="47" y="228" type="line"/>
    </contour>
  </outline>
</glyph>
<glyph name="equal" format="1">
  <advance width="56"/>
  <unicode hex="003D"/>
  <outline>
    <contour>
      <point x="48" y="398" type="line"/>
      <point x="8" y="398" type="line"/>
      <point x="8" y="407" type="line"/>
      <point x="48" y="407" type="line"/>
    </contour>
    <contour>
      <point x="48" y="337" type="line"/>
      <point x="8" y="337" type="line"/>
      <point x="8" y="346" type="line"/>
      <point x="48" y="346" type="line"/>
    </contour>
  </outline>
</glyph>
<glyph name="greater" format="1">
  <advance width="55"/>
  <unicode hex="003E"/>
  <outline>
    <contour>
      <point x="48" y="364" type="line"/>
      <point x="8" y="191" type="line"/>
      <point x="8" y="228" type="line"/>
      <point x="40" y="374" type="line"/>
      <point x="8" y="520" type="line"/>
      <point x="8" y="557" type="line"/>
      <point x="48" y="384" type="line"/>
    </contour>
  </outline>
</glyph>
<glyph name="question" format="1">
  <advance width="80"/>
  <unicode hex="003F"/>
  <outline>
    <contour>
      <point x="65" y="446" type="line"/>
      <point x="45" y="315" type="line"/>
      <point x="45" y="133" type="line"/>
      <point x="35" y="133" type="line"/>
      <point x="35" y="315" type="line"/>
      <point x="55" y="445" type="line"/>
      <point x="55" y="709" type="line"/>
      <point x="51" y="712"/>
      <point x="45" y="713"/>
      <point x="40" y="713" type="curve" smooth="yes"/>
      <point x="35" y="713"/>
      <point x="29" y="712"/>
      <point x="25" y="709" type="curve"/>
      <point x="25" y="445" type="line"/>
      <point x="15" y="445" type="line"/>
      <point x="15" y="715" type="line"/>
      <point x="22" y="720"/>
      <point x="30" y="722"/>
      <point x="40" y="722" type="curve" smooth="yes"/>
      <point x="50" y="722"/>
      <point x="58" y="720"/>
      <point x="65" y="715" type="curve"/>
    </contour>
    <contour>
      <point x="45" y="0" type="line"/>
      <point x="35" y="0" type="line"/>
      <point x="35" y="88" type="line"/>
      <point x="45" y="88" type="line"/>
    </contour>
  </outline>
</glyph>
<glyph name="at" format="1">
  <advance width="164"/>
  <unicode hex="0040"/>
  <outline>
    <contour>
      <point x="147" y="16" type="line"/>
      <point x="127" y="3"/>
      <point x="110" y="-2"/>
      <point x="82" y="-2" type="curve" smooth="yes"/>
      <point x="54" y="-2"/>
      <point x="37" y="3"/>
      <point x="17" y="16" type="curve"/>
      <point x="17" y="704" type="line"/>
      <point x="37" y="717"/>
      <point x="54" y="722"/>
      <point x="82" y="722" type="curve" smooth="yes"/>
      <point x="110" y="722"/>
      <point x="127" y="717"/>
      <point x="147" y="704" type="curve"/>
      <point x="147" y="366" type="line"/>
      <point x="107" y="366" type="line"/>
      <point x="107" y="45" type="line"/>
      <point x="100" y="40"/>
      <point x="91" y="38"/>
      <point x="82" y="38" type="curve" smooth="yes"/>
      <point x="73" y="38"/>
      <point x="64" y="40"/>
      <point x="57" y="45" type="curve"/>
      <point x="57" y="675" type="line"/>
      <point x="64" y="680"/>
      <point x="73" y="682"/>
      <point x="82" y="682" type="curve" smooth="yes"/>
      <point x="91" y="682"/>
      <point x="100" y="680"/>
      <point x="107" y="675" type="curve"/>
      <point x="107" y="375" type="line"/>
      <point x="137" y="375" type="line"/>
      <point x="137" y="699" type="line"/>
      <point x="120" y="711"/>
      <point x="103" y="713"/>
      <point x="82" y="713" type="curve" smooth="yes"/>
      <point x="61" y="713"/>
      <point x="44" y="711"/>
      <point x="27" y="699" type="curve"/>
      <point x="27" y="21" type="line"/>
      <point x="44" y="9"/>
      <point x="61" y="7"/>
      <point x="82" y="7" type="curve" smooth="yes"/>
      <point x="103" y="7"/>
      <point x="120" y="9"/>
      <point x="137" y="21" type="curve"/>
      <point x="137" y="275" type="line"/>
      <point x="147" y="275" type="line"/>
    </contour>
    <contour>
      <point x="97" y="50" type="curve"/>
      <point x="97" y="670" type="line"/>
      <point x="93" y="673"/>
      <point x="88" y="674"/>
      <point x="82" y="674" type="curve" smooth="yes"/>
      <point x="76" y="674"/>
      <point x="70" y="673"/>
      <point x="67" y="670" type="curve"/>
      <point x="67" y="50" type="line"/>
      <point x="71" y="47"/>
      <point x="76" y="46"/>
      <point x="82" y="46" type="curve" smooth="yes"/>
      <point x="88" y="46"/>
      <point x="93" y="47"/>
    </contour>
  </outline>
</glyph>
<glyph name="B" format="1">
  <advance width="83"/>
  <unicode hex="0042"/>
  <outline>
    <contour>
      <point x="67" y="15" type="line"/>
      <point x="58" y="3"/>
      <point x="50" y="0"/>
      <point x="34" y="0" type="curve" smooth="yes"/>
      <point x="17" y="0" type="line"/>
      <point x="17" y="720" type="line"/>
      <point x="34" y="720" type="line" smooth="yes"/>
      <point x="50" y="720"/>
      <point x="58" y="717"/>
      <point x="67" y="705" type="curve"/>
      <point x="67" y="388" type="line"/>
      <point x="62" y="380"/>
      <point x="55" y="374"/>
      <point x="46" y="371" type="curve"/>
      <point x="55" y="368"/>
      <point x="62" y="362"/>
      <point x="67" y="354" type="curve"/>
    </contour>
    <contour>
      <point x="57" y="389" type="curve"/>
      <point x="57" y="701" type="line"/>
      <point x="52" y="709"/>
      <point x="43" y="711"/>
      <point x="34" y="711" type="curve" smooth="yes"/>
      <point x="27" y="711" type="line"/>
      <point x="27" y="375" type="line"/>
      <point x="31" y="375" type="line" smooth="yes"/>
      <point x="39" y="375"/>
      <point x="49" y="378"/>
    </contour>
    <contour>
      <point x="57" y="19" type="curve"/>
      <point x="57" y="352" type="line"/>
      <point x="49" y="364"/>
      <point x="39" y="366"/>
      <point x="31" y="366" type="curve" smooth="yes"/>
      <point x="27" y="366" type="line"/>
      <point x="27" y="9" type="line"/>
      <point x="34" y="9" type="line" smooth="yes"/>
      <point x="43" y="9"/>
      <point x="52" y="11"/>
    </contour>
  </outline>
</glyph>
<glyph name="F" format="1">
  <advance width="83"/>
  <unicode hex="0046"/>
  <outline>
    <contour>
      <point x="67" y="445" type="line"/>
      <point x="57" y="445" type="line"/>
      <point x="57" y="709" type="line"/>
      <point x="53" y="712"/>
      <point x="47" y="713"/>
      <point x="42" y="713" type="curve" smooth="yes"/>
      <point x="37" y="713"/>
      <point x="31" y="712"/>
      <point x="27" y="709" type="curve"/>
      <point x="27" y="375" type="line"/>
      <point x="57" y="375" type="line"/>
      <point x="57" y="366" type="line"/>
      <point x="27" y="366" type="line"/>
      <point x="27" y="0" type="line"/>
      <point x="17" y="0" type="line"/>
      <point x="17" y="715" type="line"/>
      <point x="24" y="720"/>
      <point x="32" y="722"/>
      <point x="42" y="722" type="curve" smooth="yes"/>
      <point x="52" y="722"/>
      <point x="60" y="720"/>
      <point x="67" y="715" type="curve"/>
    </contour>
  </outline>
</glyph>
<glyph name="H" format="1">
  <advance width="83"/>
  <unicode hex="0048"/>
  <outline>
    <contour>
      <point x="67" y="0" type="line"/>
      <point x="57" y="0" type="line"/>
      <point x="57" y="366" type="line"/>
      <point x="27" y="366" type="line"/>
      <point x="27" y="0" type="line"/>
      <point x="17" y="0" type="line"/>
      <point x="17" y="720" type="line"/>
      <point x="27" y="720" type="line"/>
      <point x="27" y="375" type="line"/>
      <point x="57" y="375" type="line"/>
      <point x="57" y="720" type="line"/>
      <point x="67" y="720" type="line"/>
    </contour>
  </outline>
</glyph>
<glyph name="J" format="1">
  <advance width="63"/>
  <unicode hex="004A"/>
  <outline>
    <contour>
      <point x="47" y="15" type="line"/>
      <point x="38" y="3"/>
      <point x="30" y="0"/>
      <point x="14" y="0" type="curve" smooth="yes"/>
      <point x="8" y="0" type="line"/>
      <point x="8" y="9" type="line"/>
      <point x="14" y="9" type="line" smooth="yes"/>
      <point x="23" y="9"/>
      <point x="32" y="11"/>
      <point x="37" y="19" type="curve"/>
      <point x="37" y="720" type="line"/>
      <point x="47" y="720" type="line"/>
    </contour>
  </outline>
</glyph>
<glyph name="K" format="1">
  <advance width="83"/>
  <unicode hex="004B"/>
  <outline>
    <contour>
      <point x="67" y="0" type="line"/>
      <point x="57" y="0" type="line"/>
      <point x="57" y="352" type="line"/>
      <point x="49" y="364"/>
      <point x="39" y="366"/>
      <point x="31" y="366" type="curve" smooth="yes"/>
      <point x="27" y="366" type="line"/>
      <point x="27" y="0" type="line"/>
      <point x="17" y="0" type="line"/>
      <point x="17" y="720" type="line"/>
      <point x="27" y="720" type="line"/>
      <point x="27" y="375" type="line"/>
      <point x="31" y="375" type="line" smooth="yes"/>
      <point x="39" y="375"/>
      <point x="49" y="378"/>
      <point x="57" y="389" type="curve"/>
      <point x="57" y="720" type="line"/>
      <point x="67" y="720" type="line"/>
      <point x="67" y="388" type="line"/>
      <point x="62" y="380"/>
      <point x="55" y="374"/>
      <point x="46" y="371" type="curve"/>
      <point x="55" y="368"/>
      <point x="62" y="362"/>
      <point x="67" y="354" type="curve"/>
    </contour>
  </outline>
</glyph>
<glyph name="L" format="1">
  <advance width="63"/>
  <unicode hex="004C"/>
  <outline>
    <contour>
      <point x="55" y="0" type="line"/>
      <point x="17" y="0" type="line"/>
      <point x="17" y="720" type="line"/>
      <point x="27" y="720" type="line"/>
      <point x="27" y="9" type="line"/>
      <point x="55" y="9" type="line"/>
    </contour>
  </outline>
</glyph>
<glyph name="M" format="1">
  <advance width="123"/>
  <unicode hex="004D"/>
  <outline>
    <contour>
      <point x="107" y="0" type="line"/>
      <point x="97" y="0" type="line"/>
      <point x="97" y="707" type="line"/>
      <point x="89" y="711"/>
      <point x="79" y="713"/>
      <point x="67" y="713" type="curve"/>
      <point x="67" y="0" type="line"/>
      <point x="57" y="0" type="line"/>
      <point x="57" y="713" type="line"/>
      <point x="45" y="713"/>
      <point x="35" y="711"/>
      <point x="27" y="707" type="curve"/>
      <point x="27" y="0" type="line"/>
      <point x="17" y="0" type="line"/>
      <point x="17" y="712" type="line"/>
      <point x="29" y="719"/>
      <point x="45" y="722"/>
      <point x="62" y="722" type="curve" smooth="yes"/>
      <point x="79" y="722"/>
      <point x="95" y="719"/>
      <point x="107" y="712" type="curve"/>
    </contour>
  </outline>
</glyph>
<glyph name="N" format="1">
  <advance width="83"/>
  <unicode hex="004E"/>
  <outline>
    <contour>
      <point x="67" y="0" type="line"/>
      <point x="57" y="0" type="line"/>
      <point x="57" y="709" type="line"/>
      <point x="53" y="712"/>
      <point x="47" y="713"/>
      <point x="42" y="713" type="curve" smooth="yes"/>
      <point x="37" y="713"/>
      <point x="31" y="712"/>
      <point x="27" y="709" type="curve"/>
      <point x="27" y="0" type="line"/>
      <point x="17" y="0" type="line"/>
      <point x="17" y="715" type="line"/>
      <point x="24" y="720"/>
      <point x="32" y="722"/>
      <point x="42" y="722" type="curve" smooth="yes"/>
      <point x="52" y="722"/>
      <point x="60" y="720"/>
      <point x="67" y="715" type="curve"/>
    </contour>
  </outline>
</glyph>
<glyph name="P" format="1">
  <advance width="81"/>
  <unicode hex="0050"/>
  <outline>
    <contour>
      <point x="67" y="381" type="line"/>
      <point x="58" y="369"/>
      <point x="50" y="366"/>
      <point x="34" y="366" type="curve" smooth="yes"/>
      <point x="27" y="366" type="line"/>
      <point x="27" y="0" type="line"/>
      <point x="17" y="0" type="line"/>
      <point x="17" y="720" type="line"/>
      <point x="34" y="720" type="line" smooth="yes"/>
      <point x="50" y="720"/>
      <point x="58" y="717"/>
      <point x="67" y="705" type="curve"/>
    </contour>
    <contour>
      <point x="57" y="385" type="curve"/>
      <point x="57" y="701" type="line"/>
      <point x="52" y="709"/>
      <point x="43" y="711"/>
      <point x="34" y="711" type="curve" smooth="yes"/>
      <point x="27" y="711" type="line"/>
      <point x="27" y="375" type="line"/>
      <point x="34" y="375" type="line" smooth="yes"/>
      <point x="45" y="375"/>
      <point x="52" y="377"/>
    </contour>
  </outline>
</glyph>
<glyph name="Q" format="1">
  <advance width="83"/>
  <unicode hex="0051"/>
  <outline>
    <contour>
      <point x="67" y="5" type="line"/>
      <point x="61" y="1"/>
      <point x="55" y="-1"/>
      <point x="47" y="-2" type="curve"/>
      <point x="47" y="-55" type="line"/>
      <point x="37" y="-55" type="line"/>
      <point x="37" y="-2" type="line"/>
      <point x="29" y="-1"/>
      <point x="23" y="1"/>
      <point x="17" y="5" type="curve"/>
      <point x="17" y="715" type="line"/>
      <point x="24" y="720"/>
      <point x="32" y="722"/>
      <point x="42" y="722" type="curve" smooth="yes"/>
      <point x="52" y="722"/>
      <point x="60" y="720"/>
      <point x="67" y="715" type="curve"/>
    </contour>
    <contour>
      <point x="57" y="11" type="curve"/>
      <point x="57" y="709" type="line"/>
      <point x="53" y="712"/>
      <point x="47" y="713"/>
      <point x="42" y="713" type="curve" smooth="yes"/>
      <point x="37" y="713"/>
      <point x="31" y="712"/>
      <point x="27" y="709" type="curve"/>
      <point x="27" y="11" type="line"/>
      <point x="31" y="8"/>
      <point x="37" y="7"/>
      <point x="42" y="7" type="curve" smooth="yes"/>
      <point x="47" y="7"/>
      <point x="53" y="8"/>
    </contour>
  </outline>
</glyph>
<glyph name="R" format="1">
  <advance width="83"/>
  <unicode hex="0052"/>
  <outline>
    <contour>
      <point x="67" y="0" type="line"/>
      <point x="57" y="0" type="line"/>
      <point x="57" y="352" type="line"/>
      <point x="49" y="364"/>
      <point x="39" y="366"/>
      <point x="31" y="366" type="curve" smooth="yes"/>
      <point x="27" y="366" type="line"/>
      <point x="27" y="0" type="line"/>
      <point x="17" y="0" type="line"/>
      <point x="17" y="720" type="line"/>
      <point x="34" y="720" type="line" smooth="yes"/>
      <point x="50" y="720"/>
      <point x="58" y="717"/>
      <point x="67" y="705" type="curve"/>
      <point x="67" y="388" type="line"/>
      <point x="62" y="380"/>
      <point x="55" y="374"/>
      <point x="46" y="371" type="curve"/>
      <point x="55" y="368"/>
      <point x="62" y="362"/>
      <point x="67" y="354" type="curve"/>
    </contour>
    <contour>
      <point x="57" y="389" type="curve"/>
      <point x="57" y="701" type="line"/>
      <point x="52" y="709"/>
      <point x="43" y="711"/>
      <point x="34" y="711" type="curve" smooth="yes"/>
      <point x="27" y="711" type="line"/>
      <point x="27" y="375" type="line"/>
      <point x="31" y="375" type="line" smooth="yes"/>
      <point x="39" y="375"/>
      <point x="49" y="378"/>
    </contour>
  </outline>
</glyph>
<glyph name="T" format="1">
  <advance width="66"/>
  <unicode hex="0054"/>
  <outline>
    <contour>
      <point x="58" y="711" type="line"/>
      <point x="38" y="711" type="line"/>
      <point x="38" y="0" type="line"/>
      <point x="28" y="0" type="line"/>
      <point x="28" y="711" type="line"/>
      <point x="8" y="711" type="line"/>
      <point x="8" y="720" type="line"/>
      <point x="58" y="720" type="line"/>
    </contour>
  </outline>
</glyph>
<glyph name="U" format="1">
  <advance width="83"/>
  <unicode hex="0055"/>
  <outline>
    <contour>
      <point x="67" y="5" type="line"/>
      <point x="60" y="0"/>
      <point x="52" y="-2"/>
      <point x="42" y="-2" type="curve" smooth="yes"/>
      <point x="32" y="-2"/>
      <point x="24" y="0"/>
      <point x="17" y="5" type="curve"/>
      <point x="17" y="720" type="line"/>
      <point x="27" y="720" type="line"/>
      <point x="27" y="11" type="line"/>
      <point x="31" y="8"/>
      <point x="37" y="7"/>
      <point x="42" y="7" type="curve" smooth="yes"/>
      <point x="47" y="7"/>
      <point x="53" y="8"/>
      <point x="57" y="11" type="curve"/>
      <point x="57" y="720" type="line"/>
      <point x="67" y="720" type="line"/>
    </contour>
  </outline>
</glyph>
<glyph name="V" format="1">
  <advance width="83"/>
  <unicode hex="0056"/>
  <outline>
    <contour>
      <point x="67" y="310" type="line"/>
      <point x="67" y="81"/>
      <point x="65" y="70"/>
      <point x="47" y="0" type="curve"/>
      <point x="37" y="0" type="line"/>
      <point x="19" y="70"/>
      <point x="17" y="81"/>
      <point x="17" y="310" type="curve" smooth="yes"/>
      <point x="17" y="720" type="line"/>
      <point x="27" y="720" type="line"/>
      <point x="27" y="310" type="line" smooth="yes"/>
      <point x="27" y="85"/>
      <point x="33" y="59"/>
      <point x="42" y="13" type="curve"/>
      <point x="51" y="59"/>
      <point x="57" y="85"/>
      <point x="57" y="310" type="curve" smooth="yes"/>
      <point x="57" y="720" type="line"/>
      <point x="67" y="720" type="line"/>
    </contour>
  </outline>
</glyph>
<glyph name="W" format="1">
  <advance width="123"/>
  <unicode hex="0057"/>
  <outline>
    <contour>
      <point x="107" y="8" type="line"/>
      <point x="95" y="1"/>
      <point x="79" y="-2"/>
      <point x="62" y="-2" type="curve" smooth="yes"/>
      <point x="45" y="-2"/>
      <point x="29" y="1"/>
      <point x="17" y="8" type="curve"/>
      <point x="17" y="720" type="line"/>
      <point x="27" y="720" type="line"/>
      <point x="27" y="13" type="line"/>
      <point x="35" y="9"/>
      <point x="45" y="7"/>
      <point x="57" y="7" type="curve"/>
      <point x="57" y="720" type="line"/>
      <point x="67" y="720" type="line"/>
      <point x="67" y="7" type="line"/>
      <point x="79" y="7"/>
      <point x="89" y="9"/>
      <point x="97" y="13" type="curve"/>
      <point x="97" y="720" type="line"/>
      <point x="107" y="720" type="line"/>
    </contour>
  </outline>
</glyph>
<glyph name="X" format="1">
  <advance width="83"/>
  <unicode hex="0058"/>
  <outline>
    <contour>
      <point x="67" y="0" type="line"/>
      <point x="57" y="0" type="line"/>
      <point x="57" y="358" type="line"/>
      <point x="54" y="362"/>
      <point x="48" y="365"/>
      <point x="42" y="365" type="curve" smooth="yes"/>
      <point x="36" y="365"/>
      <point x="30" y="362"/>
      <point x="27" y="358" type="curve"/>
      <point x="27" y="0" type="line"/>
      <point x="17" y="0" type="line"/>
      <point x="17" y="361" type="line"/>
      <point x="21" y="365"/>
      <point x="24" y="367"/>
      <point x="30" y="370" type="curve"/>
      <point x="24" y="373"/>
      <point x="21" y="375"/>
      <point x="17" y="379" type="curve"/>
      <point x="17" y="720" type="line"/>
      <point x="27" y="720" type="line"/>
      <point x="27" y="382" type="line"/>
      <point x="30" y="378"/>
      <point x="36" y="375"/>
      <point x="42" y="375" type="curve" smooth="yes"/>
      <point x="48" y="375"/>
      <point x="54" y="378"/>
      <point x="57" y="382" type="curve"/>
      <point x="57" y="720" type="line"/>
      <point x="67" y="720" type="line"/>
      <point x="67" y="379" type="line"/>
      <point x="63" y="375"/>
      <point x="60" y="373"/>
      <point x="54" y="370" type="curve"/>
      <point x="60" y="367"/>
      <point x="63" y="365"/>
      <point x="67" y="361" type="curve"/>
    </contour>
  </outline>
</glyph>
<glyph name="Y" format="1">
  <advance width="83"/>
  <unicode hex="0059"/>
  <outline>
    <contour>
      <point x="67" y="369" type="line"/>
      <point x="61" y="365"/>
      <point x="55" y="363"/>
      <point x="47" y="362" type="curve"/>
      <point x="47" y="0" type="line"/>
      <point x="37" y="0" type="line"/>
      <point x="37" y="362" type="line"/>
      <point x="29" y="363"/>
      <point x="23" y="365"/>
      <point x="17" y="369" type="curve"/>
      <point x="17" y="720" type="line"/>
      <point x="27" y="720" type="line"/>
      <point x="27" y="375" type="line"/>
      <point x="31" y="372"/>
      <point x="37" y="371"/>
      <point x="42" y="371" type="curve" smooth="yes"/>
      <point x="47" y="371"/>
      <point x="53" y="372"/>
      <point x="57" y="375" type="curve"/>
      <point x="57" y="720" type="line"/>
      <point x="67" y="720" type="line"/>
    </contour>
  </outline>
</glyph>
<glyph name="Z" format="1">
  <advance width="58"/>
  <unicode hex="005A"/>
  <outline>
    <contour>
      <point x="47" y="0" type="line"/>
      <point x="12" y="0" type="line"/>
      <point x="12" y="9" type="line"/>
      <point x="36" y="711" type="line"/>
      <point x="12" y="711" type="line"/>
      <point x="12" y="720" type="line"/>
      <point x="46" y="720" type="line"/>
      <point x="46" y="711" type="line"/>
      <point x="22" y="9" type="line"/>
      <point x="47" y="9" type="line"/>
    </contour>
  </outline>
</glyph>
<glyph name="bracketleft" format="1">
  <advance width="60"/>
  <unicode hex="005B"/>
  <outline>
    <contour>
      <point x="52" y="0" type="line"/>
      <point x="17" y="0" type="line"/>
      <point x="17" y="720" type="line"/>
      <point x="52" y="720" type="line"/>
      <point x="52" y="711" type="line"/>
      <point x="27" y="711" type="line"/>
      <point x="27" y="9" type="line"/>
      <point x="52" y="9" type="line"/>
    </contour>
  </outline>
</glyph>
<glyph name="backslash" format="1">
  <advance width="61"/>
  <unicode hex="005C"/>
  <outline>
    <contour>
      <point x="47" y="0" type="line"/>
      <point x="37" y="0" type="line"/>
      <point x="10" y="720" type="line"/>
      <point x="20" y="720" type="line"/>
    </contour>
  </outline>
</glyph>
<glyph name="bracketright" format="1">
  <advance width="60"/>
  <unicode hex="005D"/>
  <outline>
    <contour>
      <point x="43" y="0" type="line"/>
      <point x="8" y="0" type="line"/>
      <point x="8" y="9" type="line"/>
      <point x="33" y="9" type="line"/>
      <point x="33" y="711" type="line"/>
      <point x="8" y="711" type="line"/>
      <point x="8" y="720" type="line"/>
      <point x="43" y="720" type="line"/>
    </contour>
  </outline>
</glyph>
<glyph name="asciicircum" format="1">
  <advance width="85"/>
  <unicode hex="005E"/>
  <outline>
    <contour>
      <point x="74" y="350" type="line"/>
      <point x="64" y="350" type="line"/>
      <point x="42" y="671" type="line"/>
      <point x="20" y="350" type="line"/>
      <point x="10" y="350" type="line"/>
      <point x="37" y="723" type="line"/>
      <point x="47" y="723" type="line"/>
    </contour>
  </outline>
</glyph>
<glyph name="underscore" format="1">
  <advance width="88"/>
  <unicode hex="005F"/>
  <outline>
    <contour>
      <point x="84" y="-57" type="line"/>
      <point x="4" y="-57" type="line"/>
      <point x="4" y="-47" type="line"/>
      <point x="84" y="-47" type="line"/>
    </contour>
  </outline>
</glyph>
<glyph name="grave" format="1">
  <advance width="79"/>
  <unicode hex="0060"/>
  <outline>
    <contour>
      <point x="59" y="515" type="line"/>
      <point x="49" y="515" type="line"/>
      <point x="20" y="625" type="line"/>
      <point x="30" y="625" type="line"/>
    </contour>
  </outline>
</glyph>
<glyph name="b" format="1">
  <advance width="79"/>
  <unicode hex="0062"/>
  <outline>
    <contour>
      <point x="64" y="5" type="line"/>
      <point x="57" y="0"/>
      <point x="48" y="-2"/>
      <point x="40" y="-2" type="curve" smooth="yes"/>
      <point x="32" y="-2"/>
      <point x="23" y="0"/>
      <point x="16" y="5" type="curve"/>
      <point x="16" y="720" type="line"/>
      <point x="26" y="720" type="line"/>
      <point x="26" y="479" type="line"/>
      <point x="31" y="481"/>
      <point x="36" y="482"/>
      <point x="42" y="482" type="curve" smooth="yes"/>
      <point x="51" y="482"/>
      <point x="57" y="479"/>
      <point x="64" y="475" type="curve"/>
    </contour>
    <contour>
      <point x="54" y="11" type="curve"/>
      <point x="54" y="469" type="line"/>
      <point x="50" y="472"/>
      <point x="45" y="473"/>
      <point x="40" y="473" type="curve" smooth="yes"/>
      <point x="35" y="473"/>
      <point x="30" y="472"/>
      <point x="26" y="469" type="curve"/>
      <point x="26" y="11" type="line"/>
      <point x="30" y="8"/>
      <point x="35" y="7"/>
      <point x="40" y="7" type="curve" smooth="yes"/>
      <point x="45" y="7"/>
      <point x="50" y="8"/>
    </contour>
  </outline>
</glyph>
<glyph name="f" format="1">
  <advance width="52"/>
  <unicode hex="0066"/>
  <outline>
    <contour>
      <point x="47" y="471" type="line"/>
      <point x="26" y="471" type="line"/>
      <point x="26" y="0" type="line"/>
      <point x="16" y="0" type="line"/>
      <point x="16" y="471" type="line"/>
      <point x="16" y="471" type="line"/>
      <point x="16" y="480" type="line"/>
      <point x="16" y="480" type="line"/>
      <point x="16" y="713" type="line"/>
      <point x="21" y="717"/>
      <point x="31" y="720"/>
      <point x="41" y="720" type="curve" smooth="yes"/>
      <point x="47" y="720" type="line"/>
      <point x="47" y="711" type="line"/>
      <point x="41" y="711" type="line" smooth="yes"/>
      <point x="36" y="711"/>
      <point x="31" y="710"/>
      <point x="26" y="707" type="curve"/>
      <point x="26" y="480" type="line"/>
      <point x="47" y="480" type="line"/>
    </contour>
  </outline>
</glyph>
<glyph name="g" format="1">
  <advance width="79"/>
  <unicode hex="0067"/>
  <outline>
    <contour>
      <point x="64" y="-170" type="line"/>
      <point x="57" y="-175"/>
      <point x="48" y="-177"/>
      <point x="40" y="-177" type="curve" smooth="yes"/>
      <point x="32" y="-177"/>
      <point x="23" y="-175"/>
      <point x="16" y="-170" type="curve"/>
      <point x="16" y="-60" type="line"/>
      <point x="26" y="-60" type="line"/>
      <point x="26" y="-164" type="line"/>
      <point x="30" y="-167"/>
      <point x="35" y="-168"/>
      <point x="40" y="-168" type="curve" smooth="yes"/>
      <point x="45" y="-168"/>
      <point x="50" y="-167"/>
      <point x="54" y="-164" type="curve"/>
      <point x="54" y="1" type="line"/>
      <point x="49" y="-1"/>
      <point x="44" y="-2"/>
      <point x="38" y="-2" type="curve" smooth="yes"/>
      <point x="29" y="-2"/>
      <point x="23" y="1"/>
      <point x="16" y="5" type="curve"/>
      <point x="16" y="475" type="line"/>
      <point x="23" y="480"/>
      <point x="32" y="482"/>
      <point x="40" y="482" type="curve" smooth="yes"/>
      <point x="48" y="482"/>
      <point x="57" y="480"/>
      <point x="64" y="475" type="curve"/>
    </contour>
    <contour>
      <point x="54" y="11" type="curve"/>
      <point x="54" y="469" type="line"/>
      <point x="51" y="472"/>
      <point x="45" y="473"/>
      <point x="40" y="473" type="curve" smooth="yes"/>
      <point x="35" y="473"/>
      <point x="30" y="472"/>
      <point x="26" y="469" type="curve"/>
      <point x="26" y="11" type="line"/>
      <point x="30" y="8"/>
      <point x="35" y="7"/>
      <point x="40" y="7" type="curve" smooth="yes"/>
      <point x="45" y="7"/>
      <point x="50" y="8"/>
    </contour>
  </outline>
</glyph>
<glyph name="h" format="1">
  <advance width="79"/>
  <unicode hex="0068"/>
  <outline>
    <contour>
      <point x="64" y="0" type="line"/>
      <point x="54" y="0" type="line"/>
      <point x="54" y="469" type="line"/>
      <point x="50" y="472"/>
      <point x="45" y="473"/>
      <point x="40" y="473" type="curve" smooth="yes"/>
      <point x="35" y="473"/>
      <point x="29" y="472"/>
      <point x="26" y="469" type="curve"/>
      <point x="26" y="0" type="line"/>
      <point x="16" y="0" type="line"/>
      <point x="16" y="720" type="line"/>
      <point x="26" y="720" type="line"/>
      <point x="26" y="479" type="line"/>
      <point x="31" y="481"/>
      <point x="36" y="482"/>
      <point x="42" y="482" type="curve" smooth="yes"/>
      <point x="51" y="482"/>
      <point x="57" y="479"/>
      <point x="64" y="475" type="curve"/>
    </contour>
  </outline>
</glyph>
<glyph name="i" format="1">
  <advance width="43"/>
  <unicode hex="0069"/>
  <outline>
    <contour>
      <point x="27" y="632" type="line"/>
      <point x="17" y="632" type="line"/>
      <point x="17" y="720" type="line"/>
      <point x="27" y="720" type="line"/>
    </contour>
    <contour>
      <point x="27" y="0" type="line"/>
      <point x="17" y="0" type="line"/>
      <point x="17" y="480" type="line"/>
      <point x="27" y="480" type="line"/>
    </contour>
  </outline>
</glyph>
<glyph name="j" format="1">
  <advance width="43"/>
  <unicode hex="006A"/>
  <outline>
    <contour>
      <point x="27" y="632" type="line"/>
      <point x="17" y="632" type="line"/>
      <point x="17" y="720" type="line"/>
      <point x="27" y="720" type="line"/>
    </contour>
    <contour>
      <point x="27" y="-168" type="line"/>
      <point x="22" y="-172"/>
      <point x="12" y="-175"/>
      <point x="2" y="-175" type="curve" smooth="yes"/>
      <point x="-4" y="-175" type="line"/>
      <point x="-4" y="-166" type="line"/>
      <point x="2" y="-166" type="line" smooth="yes"/>
      <point x="7" y="-166"/>
      <point x="12" y="-165"/>
      <point x="17" y="-162" type="curve"/>
      <point x="17" y="480" type="line"/>
      <point x="27" y="480" type="line"/>
    </contour>
  </outline>
</glyph>
<glyph name="k" format="1">
  <advance width="79"/>
  <unicode hex="006B"/>
  <outline>
    <contour>
      <point x="64" y="0" type="line"/>
      <point x="54" y="0" type="line"/>
      <point x="54" y="227" type="line"/>
      <point x="46" y="239"/>
      <point x="36" y="241"/>
      <point x="28" y="241" type="curve" smooth="yes"/>
      <point x="26" y="241" type="line"/>
      <point x="26" y="0" type="line"/>
      <point x="16" y="0" type="line"/>
      <point x="16" y="720" type="line"/>
      <point x="26" y="720" type="line"/>
      <point x="26" y="250" type="line"/>
      <point x="28" y="250" type="line" smooth="yes"/>
      <point x="36" y="250"/>
      <point x="46" y="253"/>
      <point x="54" y="264" type="curve"/>
      <point x="54" y="480" type="line"/>
      <point x="64" y="480" type="line"/>
      <point x="64" y="263" type="line"/>
      <point x="59" y="255"/>
      <point x="52" y="249"/>
      <point x="43" y="246" type="curve"/>
      <point x="52" y="243"/>
      <point x="59" y="237"/>
      <point x="64" y="229" type="curve"/>
    </contour>
  </outline>
</glyph>
<glyph name="m" format="1">
  <advance width="117"/>
  <unicode hex="006D"/>
  <outline>
    <contour>
      <point x="102" y="0" type="line"/>
      <point x="92" y="0" type="line"/>
      <point x="92" y="470" type="line"/>
      <point x="84" y="473"/>
      <point x="75" y="474"/>
      <point x="64" y="474" type="curve"/>
      <point x="64" y="0" type="line"/>
      <point x="54" y="0" type="line"/>
      <point x="54" y="474" type="line"/>
      <point x="43" y="474"/>
      <point x="34" y="473"/>
      <point x="26" y="470" type="curve"/>
      <point x="26" y="0" type="line"/>
      <point x="16" y="0" type="line"/>
      <point x="16" y="476" type="line"/>
      <point x="27" y="481"/>
      <point x="40" y="483"/>
      <point x="59" y="483" type="curve" smooth="yes"/>
      <point x="78" y="483"/>
      <point x="91" y="481"/>
      <point x="102" y="476" type="curve"/>
    </contour>
  </outline>
</glyph>
<glyph name="n" format="1">
  <advance width="79"/>
  <unicode hex="006E"/>
  <outline>
    <contour>
      <point x="64" y="0" type="line"/>
      <point x="54" y="0" type="line"/>
      <point x="54" y="469" type="line"/>
      <point x="50" y="472"/>
      <point x="45" y="473"/>
      <point x="40" y="473" type="curve" smooth="yes"/>
      <point x="35" y="473"/>
      <point x="30" y="472"/>
      <point x="26" y="469" type="curve"/>
      <point x="26" y="0" type="line"/>
      <point x="16" y="0" type="line"/>
      <point x="16" y="475" type="line"/>
      <point x="23" y="480"/>
      <point x="32" y="482"/>
      <point x="40" y="482" type="curve" smooth="yes"/>
      <point x="48" y="482"/>
      <point x="57" y="480"/>
      <point x="64" y="475" type="curve"/>
    </contour>
  </outline>
</glyph>
<glyph name="r" format="1">
  <advance width="53"/>
  <unicode hex="0072"/>
  <outline>
    <contour>
      <point x="47" y="471" type="line"/>
      <point x="41" y="471" type="line" smooth="yes"/>
      <point x="36" y="471"/>
      <point x="31" y="470"/>
      <point x="26" y="467" type="curve"/>
      <point x="26" y="0" type="line"/>
      <point x="16" y="0" type="line"/>
      <point x="16" y="473" type="line"/>
      <point x="21" y="477"/>
      <point x="31" y="480"/>
      <point x="41" y="480" type="curve" smooth="yes"/>
      <point x="47" y="480" type="line"/>
    </contour>
  </outline>
</glyph>
<glyph name="t" format="1">
  <advance width="56"/>
  <unicode hex="0074"/>
  <outline>
    <contour>
      <point x="47" y="0" type="line"/>
      <point x="41" y="0" type="line" smooth="yes"/>
      <point x="31" y="0"/>
      <point x="21" y="3"/>
      <point x="16" y="7" type="curve"/>
      <point x="16" y="471" type="line"/>
      <point x="16" y="471" type="line"/>
      <point x="16" y="480" type="line"/>
      <point x="16" y="480" type="line"/>
      <point x="16" y="640" type="line"/>
      <point x="26" y="640" type="line"/>
      <point x="26" y="480" type="line"/>
      <point x="47" y="480" type="line"/>
      <point x="47" y="471" type="line"/>
      <point x="26" y="471" type="line"/>
      <point x="26" y="13" type="line"/>
      <point x="31" y="10"/>
      <point x="36" y="9"/>
      <point x="41" y="9" type="curve" smooth="yes"/>
      <point x="47" y="9" type="line"/>
    </contour>
  </outline>
</glyph>
<glyph name="u" format="1">
  <advance width="79"/>
  <unicode hex="0075"/>
  <outline>
    <contour>
      <point x="64" y="5" type="line"/>
      <point x="57" y="0"/>
      <point x="48" y="-2"/>
      <point x="40" y="-2" type="curve" smooth="yes"/>
      <point x="32" y="-2"/>
      <point x="23" y="0"/>
      <point x="16" y="5" type="curve"/>
      <point x="16" y="480" type="line"/>
      <point x="26" y="480" type="line"/>
      <point x="26" y="11" type="line"/>
      <point x="30" y="8"/>
      <point x="35" y="7"/>
      <point x="40" y="7" type="curve" smooth="yes"/>
      <point x="45" y="7"/>
      <point x="50" y="8"/>
      <point x="54" y="11" type="curve"/>
      <point x="54" y="480" type="line"/>
      <point x="64" y="480" type="line"/>
    </contour>
  </outline>
</glyph>
<glyph name="v" format="1">
  <advance width="79"/>
  <unicode hex="0076"/>
  <outline>
    <contour>
      <point x="64" y="248" type="line"/>
      <point x="64" y="63"/>
      <point x="62" y="53"/>
      <point x="45" y="0" type="curve"/>
      <point x="35" y="0" type="line"/>
      <point x="18" y="53"/>
      <point x="16" y="63"/>
      <point x="16" y="248" type="curve" smooth="yes"/>
      <point x="16" y="480" type="line"/>
      <point x="26" y="480" type="line"/>
      <point x="26" y="248" type="line" smooth="yes"/>
      <point x="26" y="70"/>
      <point x="30" y="46"/>
      <point x="40" y="11" type="curve"/>
      <point x="50" y="46"/>
      <point x="54" y="70"/>
      <point x="54" y="248" type="curve" smooth="yes"/>
      <point x="54" y="480" type="line"/>
      <point x="64" y="480" type="line"/>
    </contour>
  </outline>
</glyph>
<glyph name="w" format="1">
  <advance width="117"/>
  <unicode hex="0077"/>
  <outline>
    <contour>
      <point x="102" y="4" type="line"/>
      <point x="91" y="-1"/>
      <point x="78" y="-3"/>
      <point x="59" y="-3" type="curve" smooth="yes"/>
      <point x="40" y="-3"/>
      <point x="27" y="-1"/>
      <point x="16" y="4" type="curve"/>
      <point x="16" y="480" type="line"/>
      <point x="26" y="480" type="line"/>
      <point x="26" y="10" type="line"/>
      <point x="34" y="7"/>
      <point x="43" y="6"/>
      <point x="54" y="6" type="curve"/>
      <point x="54" y="480" type="line"/>
      <point x="64" y="480" type="line"/>
      <point x="64" y="6" type="line"/>
      <point x="75" y="6"/>
      <point x="84" y="7"/>
      <point x="92" y="10" type="curve"/>
      <point x="92" y="480" type="line"/>
      <point x="102" y="480" type="line"/>
    </contour>
  </outline>
</glyph>
<glyph name="x" format="1">
  <advance width="83"/>
  <unicode hex="0078"/>
  <outline>
    <contour>
      <point x="64" y="0" type="line"/>
      <point x="54" y="0" type="line"/>
      <point x="54" y="234" type="line"/>
      <point x="51" y="238"/>
      <point x="46" y="241"/>
      <point x="40" y="241" type="curve" smooth="yes"/>
      <point x="34" y="241"/>
      <point x="29" y="238"/>
      <point x="26" y="234" type="curve"/>
      <point x="26" y="0" type="line"/>
      <point x="16" y="0" type="line"/>
      <point x="16" y="237" type="line"/>
      <point x="20" y="241"/>
      <point x="23" y="243"/>
      <point x="29" y="246" type="curve"/>
      <point x="23" y="249"/>
      <point x="20" y="251"/>
      <point x="16" y="255" type="curve"/>
      <point x="16" y="480" type="line"/>
      <point x="26" y="480" type="line"/>
      <point x="26" y="258" type="line"/>
      <point x="29" y="254"/>
      <point x="34" y="251"/>
      <point x="40" y="251" type="curve" smooth="yes"/>
      <point x="46" y="251"/>
      <point x="51" y="254"/>
      <point x="54" y="258" type="curve"/>
      <point x="54" y="480" type="line"/>
      <point x="64" y="480" type="line"/>
      <point x="64" y="255" type="line"/>
      <point x="60" y="251"/>
      <point x="57" y="249"/>
      <point x="51" y="246" type="curve"/>
      <point x="57" y="243"/>
      <point x="60" y="241"/>
      <point x="64" y="237" type="curve"/>
    </contour>
  </outline>
</glyph>
<glyph name="y" format="1">
  <advance width="79"/>
  <unicode hex="0079"/>
  <outline>
    <contour>
      <point x="64" y="-170" type="line"/>
      <point x="57" y="-175"/>
      <point x="48" y="-177"/>
      <point x="40" y="-177" type="curve" smooth="yes"/>
      <point x="32" y="-177"/>
      <point x="23" y="-175"/>
      <point x="16" y="-170" type="curve"/>
      <point x="16" y="-60" type="line"/>
      <point x="26" y="-60" type="line"/>
      <point x="26" y="-164" type="line"/>
      <point x="30" y="-167"/>
      <point x="35" y="-168"/>
      <point x="40" y="-168" type="curve" smooth="yes"/>
      <point x="45" y="-168"/>
      <point x="50" y="-167"/>
      <point x="54" y="-164" type="curve"/>
      <point x="54" y="1" type="line"/>
      <point x="49" y="-1"/>
      <point x="44" y="-2"/>
      <point x="38" y="-2" type="curve" smooth="yes"/>
      <point x="29" y="-2"/>
      <point x="23" y="1"/>
      <point x="16" y="5" type="curve"/>
      <point x="16" y="480" type="line"/>
      <point x="26" y="480" type="line"/>
      <point x="26" y="11" type="line"/>
      <point x="29" y="8"/>
      <point x="35" y="7"/>
      <point x="40" y="7" type="curve" smooth="yes"/>
      <point x="45" y="7"/>
      <point x="51" y="8"/>
      <point x="54" y="11" type="curve"/>
      <point x="54" y="480" type="line"/>
      <point x="64" y="480" type="line"/>
    </contour>
  </outline>
</glyph>
<glyph name="z" format="1">
  <advance width="54"/>
  <unicode hex="007A"/>
  <outline>
    <contour>
      <point x="44" y="0" type="line"/>
      <point x="11" y="0" type="line"/>
      <point x="11" y="9" type="line"/>
      <point x="33" y="471" type="line"/>
      <point x="11" y="471" type="line"/>
      <point x="11" y="480" type="line"/>
      <point x="43" y="480" type="line"/>
      <point x="43" y="471" type="line"/>
      <point x="21" y="9" type="line"/>
      <point x="44" y="9" type="line"/>
    </contour>
  </outline>
</glyph>
<glyph name="braceleft" format="1">
  <advance width="73"/>
  <unicode hex="007B"/>
  <outline>
    <contour>
      <point x="65" y="0" type="line"/>
      <point x="48" y="0"/>
      <point x="39" y="3"/>
      <point x="30" y="15" type="curve"/>
      <point x="30" y="355" type="line"/>
      <point x="24" y="364"/>
      <point x="18" y="366"/>
      <point x="8" y="366" type="curve"/>
      <point x="8" y="375" type="line"/>
      <point x="18" y="375"/>
      <point x="24" y="378"/>
      <point x="30" y="386" type="curve"/>
      <point x="30" y="705" type="line"/>
      <point x="39" y="717"/>
      <point x="48" y="720"/>
      <point x="65" y="720" type="curve"/>
      <point x="65" y="711" type="line"/>
      <point x="53" y="711"/>
      <point x="45" y="709"/>
      <point x="40" y="701" type="curve"/>
      <point x="40" y="385" type="line"/>
      <point x="35" y="377"/>
      <point x="31" y="374"/>
      <point x="24" y="371" type="curve"/>
      <point x="31" y="368"/>
      <point x="35" y="365"/>
      <point x="40" y="357" type="curve"/>
      <point x="40" y="19" type="line"/>
      <point x="45" y="11"/>
      <point x="53" y="9"/>
      <point x="65" y="9" type="curve"/>
    </contour>
  </outline>
</glyph>
<glyph name="bar" format="1">
  <advance width="43"/>
  <unicode hex="007C"/>
  <outline>
    <contour>
      <point x="27" y="-55" type="line"/>
      <point x="17" y="-55" type="line"/>
      <point x="17" y="775" type="line"/>
      <point x="27" y="775" type="line"/>
    </contour>
  </outline>
</glyph>
<glyph name="braceright" format="1">
  <advance width="73"/>
  <unicode hex="007D"/>
  <outline>
    <contour>
      <point x="65" y="366" type="line"/>
      <point x="55" y="366"/>
      <point x="49" y="364"/>
      <point x="43" y="355" type="curve"/>
      <point x="43" y="15" type="line"/>
      <point x="34" y="3"/>
      <point x="25" y="0"/>
      <point x="8" y="0" type="curve"/>
      <point x="8" y="9" type="line"/>
      <point x="20" y="9"/>
      <point x="28" y="11"/>
      <point x="33" y="19" type="curve"/>
      <point x="33" y="357" type="line"/>
      <point x="38" y="365"/>
      <point x="42" y="368"/>
      <point x="49" y="371" type="curve"/>
      <point x="42" y="374"/>
      <point x="38" y="377"/>
      <point x="33" y="385" type="curve"/>
      <point x="33" y="701" type="line"/>
      <point x="28" y="709"/>
      <point x="20" y="711"/>
      <point x="8" y="711" type="curve"/>
      <point x="8" y="720" type="line"/>
      <point x="25" y="720"/>
      <point x="34" y="717"/>
      <point x="43" y="705" type="curve"/>
      <point x="43" y="386" type="line"/>
      <point x="49" y="378"/>
      <point x="55" y="375"/>
      <point x="65" y="375" type="curve"/>
    </contour>
  </outline>
</glyph>
<glyph name="asciitilde" format="1">
  <advance width="79"/>
  <unicode hex="007E"/>
  <outline>
    <contour>
      <point x="62" y="318" type="line"/>
      <point x="54" y="318" type="line"/>
      <point x="26" y="398" type="line"/>
      <point x="26" y="318" type="line"/>
      <point x="17" y="318" type="line"/>
      <point x="17" y="428" type="line"/>
      <point x="25" y="428" type="line"/>
      <point x="53" y="348" type="line"/>
      <point x="53" y="428" type="line"/>
      <point x="62" y="428" type="line"/>
    </contour>
  </outline>
</glyph>
<glyph name="exclamdown" format="1">
  <advance width="46"/>
  <unicode hex="00A1"/>
  <outline>
    <contour>
      <point x="28" y="632" type="line"/>
      <point x="18" y="632" type="line"/>
      <point x="18" y="720" type="line"/>
      <point x="28" y="720" type="line"/>
    </contour>
    <contour>
      <point x="28" y="0" type="line"/>
      <point x="18" y="0" type="line"/>
      <point x="18" y="587" type="line"/>
      <point x="28" y="587" type="line"/>
    </contour>
  </outline>
</glyph>
<glyph name="cent" format="1">
  <advance width="79"/>
  <unicode hex="00A2"/>
  <outline>
    <contour>
      <point x="64" y="125" type="line"/>
      <point x="58" y="121"/>
      <point x="52" y="119"/>
      <point x="45" y="118" type="curve"/>
      <point x="45" y="0" type="line"/>
      <point x="35" y="0" type="line"/>
      <point x="35" y="118" type="line"/>
      <point x="28" y="119"/>
      <point x="22" y="121"/>
      <point x="16" y="125" type="curve"/>
      <point x="16" y="595" type="line"/>
      <point x="22" y="599"/>
      <point x="28" y="601"/>
      <point x="35" y="602" type="curve"/>
      <point x="35" y="720" type="line"/>
      <point x="45" y="720" type="line"/>
      <point x="45" y="602" type="line"/>
      <point x="52" y="601"/>
      <point x="58" y="599"/>
      <point x="64" y="595" type="curve"/>
      <point x="64" y="436" type="line"/>
      <point x="54" y="436" type="line"/>
      <point x="54" y="589" type="line"/>
      <point x="50" y="592"/>
      <point x="45" y="593"/>
      <point x="40" y="593" type="curve" smooth="yes"/>
      <point x="35" y="593"/>
      <point x="30" y="592"/>
      <point x="26" y="589" type="curve"/>
      <point x="26" y="131" type="line"/>
      <point x="30" y="128"/>
      <point x="35" y="127"/>
      <point x="40" y="127" type="curve" smooth="yes"/>
      <point x="45" y="127"/>
      <point x="50" y="128"/>
      <point x="54" y="131" type="curve"/>
      <point x="54" y="284" type="line"/>
      <point x="64" y="284" type="line"/>
    </contour>
  </outline>
</glyph>
<glyph name="section" format="1">
  <advance width="83"/>
  <unicode hex="00A7"/>
  <outline>
    <contour>
      <point x="67" y="-170" type="line"/>
      <point x="60" y="-175"/>
      <point x="52" y="-177"/>
      <point x="42" y="-177" type="curve" smooth="yes"/>
      <point x="32" y="-177"/>
      <point x="24" y="-175"/>
      <point x="17" y="-170" type="curve"/>
      <point x="17" y="67" type="line"/>
      <point x="27" y="67" type="line"/>
      <point x="27" y="-164" type="line"/>
      <point x="31" y="-167"/>
      <point x="37" y="-168"/>
      <point x="42" y="-168" type="curve" smooth="yes"/>
      <point x="47" y="-168"/>
      <point x="53" y="-167"/>
      <point x="57" y="-164" type="curve"/>
      <point x="57" y="66" type="line"/>
      <point x="40" y="105" type="line"/>
      <point x="40" y="105" type="line"/>
      <point x="31" y="105"/>
      <point x="24" y="107"/>
      <point x="17" y="112" type="curve"/>
      <point x="17" y="431" type="line"/>
      <point x="22" y="435"/>
      <point x="28" y="437"/>
      <point x="35" y="437" type="curve"/>
      <point x="17" y="477" type="line"/>
      <point x="17" y="715" type="line"/>
      <point x="24" y="720"/>
      <point x="32" y="722"/>
      <point x="42" y="722" type="curve" smooth="yes"/>
      <point x="52" y="722"/>
      <point x="60" y="720"/>
      <point x="67" y="715" type="curve"/>
      <point x="67" y="478" type="line"/>
      <point x="57" y="478" type="line"/>
      <point x="57" y="709" type="line"/>
      <point x="53" y="712"/>
      <point x="47" y="713"/>
      <point x="42" y="713" type="curve" smooth="yes"/>
      <point x="37" y="713"/>
      <point x="31" y="712"/>
      <point x="27" y="709" type="curve"/>
      <point x="27" y="479" type="line"/>
      <point x="44" y="438" type="line"/>
      <point x="44" y="438" type="line"/>
      <point x="53" y="438"/>
      <point x="61" y="436"/>
      <point x="67" y="431" type="curve"/>
      <point x="67" y="112" type="line"/>
      <point x="62" y="109"/>
      <point x="57" y="106"/>
      <point x="50" y="105" type="curve"/>
      <point x="67" y="68" type="line"/>
    </contour>
    <contour>
      <point x="57" y="118" type="curve"/>
      <point x="57" y="425" type="line"/>
      <point x="53" y="428"/>
      <point x="47" y="429"/>
      <point x="42" y="429" type="curve" smooth="yes"/>
      <point x="37" y="429"/>
      <point x="31" y="428"/>
      <point x="27" y="425" type="curve"/>
      <point x="27" y="118" type="line"/>
      <point x="31" y="115"/>
      <point x="37" y="114"/>
      <point x="42" y="114" type="curve" smooth="yes"/>
      <point x="47" y="114"/>
      <point x="53" y="115"/>
    </contour>
  </outline>
</glyph>
<glyph name="dieresis" format="1">
  <advance width="79"/>
  <unicode hex="00A8"/>
  <outline>
    <contour>
      <point x="62" y="515" type="line"/>
      <point x="52" y="515" type="line"/>
      <point x="52" y="625" type="line"/>
      <point x="62" y="625" type="line"/>
    </contour>
    <contour>
      <point x="27" y="515" type="line"/>
      <point x="17" y="515" type="line"/>
      <point x="17" y="625" type="line"/>
      <point x="27" y="625" type="line"/>
    </contour>
  </outline>
</glyph>
<glyph name="copyright" format="1">
  <advance width="164"/>
  <unicode hex="00A9"/>
  <outline>
    <contour>
      <point x="147" y="16" type="line"/>
      <point x="127" y="3"/>
      <point x="110" y="-2"/>
      <point x="82" y="-2" type="curve" smooth="yes"/>
      <point x="54" y="-2"/>
      <point x="37" y="3"/>
      <point x="17" y="16" type="curve"/>
      <point x="17" y="704" type="line"/>
      <point x="37" y="717"/>
      <point x="54" y="722"/>
      <point x="82" y="722" type="curve" smooth="yes"/>
      <point x="110" y="722"/>
      <point x="127" y="717"/>
      <point x="147" y="704" type="curve"/>
    </contour>
    <contour>
      <point x="137" y="21" type="curve"/>
      <point x="137" y="699" type="line"/>
      <point x="120" y="711"/>
      <point x="103" y="713"/>
      <point x="82" y="713" type="curve" smooth="yes"/>
      <point x="61" y="713"/>
      <point x="44" y="711"/>
      <point x="27" y="699" type="curve"/>
      <point x="27" y="21" type="line"/>
      <point x="44" y="9"/>
      <point x="61" y="7"/>
      <point x="82" y="7" type="curve" smooth="yes"/>
      <point x="103" y="7"/>
      <point x="120" y="9"/>
    </contour>
    <contour>
      <point x="107" y="45" type="line"/>
      <point x="100" y="40"/>
      <point x="92" y="38"/>
      <point x="82" y="38" type="curve" smooth="yes"/>
      <point x="72" y="38"/>
      <point x="64" y="40"/>
      <point x="57" y="45" type="curve"/>
      <point x="57" y="675" type="line"/>
      <point x="64" y="680"/>
      <point x="72" y="682"/>
      <point x="82" y="682" type="curve" smooth="yes"/>
      <point x="92" y="682"/>
      <point x="100" y="680"/>
      <point x="107" y="675" type="curve"/>
      <point x="107" y="445" type="line"/>
      <point x="97" y="445" type="line"/>
      <point x="97" y="669" type="line"/>
      <point x="93" y="672"/>
      <point x="87" y="673"/>
      <point x="82" y="673" type="curve" smooth="yes"/>
      <point x="77" y="673"/>
      <point x="71" y="672"/>
      <point x="67" y="669" type="curve"/>
      <point x="67" y="51" type="line"/>
      <point x="70" y="48"/>
      <point x="77" y="47"/>
      <point x="82" y="47" type="curve" smooth="yes"/>
      <point x="87" y="47"/>
      <point x="93" y="48"/>
      <point x="97" y="51" type="curve"/>
      <point x="97" y="275" type="line"/>
      <point x="107" y="275" type="line"/>
    </contour>
  </outline>
</glyph>
<glyph name="guillemotleft" format="1">
  <advance width="89"/>
  <unicode hex="00AB"/>
  <outline>
    <contour>
      <point x="81" y="57" type="line"/>
      <point x="41" y="230" type="line"/>
      <point x="41" y="250" type="line"/>
      <point x="81" y="423" type="line"/>
      <point x="81" y="386" type="line"/>
      <point x="49" y="240" type="line"/>
      <point x="81" y="94" type="line"/>
    </contour>
    <contour>
      <point x="47" y="57" type="line"/>
      <point x="7" y="230" type="line"/>
      <point x="7" y="250" type="line"/>
      <point x="47" y="423" type="line"/>
      <point x="47" y="386" type="line"/>
      <point x="15" y="240" type="line"/>
      <point x="47" y="94" type="line"/>
    </contour>
  </outline>
</glyph>
<glyph name="macron" format="1">
  <advance width="79"/>
  <unicode hex="00AF"/>
  <unicode hex="02C9"/>
  <outline>
    <contour>
      <point x="63" y="515" type="line"/>
      <point x="16" y="515" type="line"/>
      <point x="16" y="524" type="line"/>
      <point x="63" y="524" type="line"/>
    </contour>
  </outline>
</glyph>
<glyph name="degree" format="1">
  <advance width="80"/>
  <unicode hex="00B0"/>
  <outline>
    <contour>
      <point x="64" y="355" type="line"/>
      <point x="57" y="350"/>
      <point x="48" y="348"/>
      <point x="40" y="348" type="curve" smooth="yes"/>
      <point x="32" y="348"/>
      <point x="23" y="350"/>
      <point x="16" y="355" type="curve"/>
      <point x="16" y="715" type="line"/>
      <point x="23" y="720"/>
      <point x="32" y="722"/>
      <point x="40" y="722" type="curve" smooth="yes"/>
      <point x="48" y="722"/>
      <point x="57" y="720"/>
      <point x="64" y="715" type="curve"/>
    </contour>
    <contour>
      <point x="54" y="361" type="curve"/>
      <point x="54" y="709" type="line"/>
      <point x="50" y="712"/>
      <point x="45" y="713"/>
      <point x="40" y="713" type="curve" smooth="yes"/>
      <point x="35" y="713"/>
      <point x="30" y="712"/>
      <point x="26" y="709" type="curve"/>
      <point x="26" y="361" type="line"/>
      <point x="30" y="358"/>
      <point x="35" y="357"/>
      <point x="40" y="357" type="curve" smooth="yes"/>
      <point x="45" y="357"/>
      <point x="50" y="358"/>
    </contour>
  </outline>
</glyph>
<glyph name="acute" format="1">
  <advance width="79"/>
  <unicode hex="00B4"/>
  <outline>
    <contour>
      <point x="59" y="625" type="line"/>
      <point x="30" y="515" type="line"/>
      <point x="20" y="515" type="line"/>
      <point x="49" y="625" type="line"/>
    </contour>
  </outline>
</glyph>
<glyph name="paragraph" format="1">
  <advance width="106"/>
  <unicode hex="00B6"/>
  <outline>
    <contour>
      <point x="90" y="0" type="line"/>
      <point x="80" y="0" type="line"/>
      <point x="80" y="711" type="line"/>
      <point x="64" y="711" type="line"/>
      <point x="64" y="0" type="line"/>
      <point x="54" y="0" type="line"/>
      <point x="54" y="366" type="line"/>
      <point x="47" y="366" type="line" smooth="yes"/>
      <point x="31" y="366"/>
      <point x="23" y="369"/>
      <point x="14" y="381" type="curve"/>
      <point x="14" y="705" type="line"/>
      <point x="23" y="717"/>
      <point x="31" y="720"/>
      <point x="47" y="720" type="curve" smooth="yes"/>
      <point x="90" y="720" type="line"/>
    </contour>
    <contour>
      <point x="54" y="375" type="line"/>
      <point x="54" y="711" type="line"/>
      <point x="47" y="711" type="line" smooth="yes"/>
      <point x="38" y="711"/>
      <point x="29" y="709"/>
      <point x="24" y="701" type="curve"/>
      <point x="24" y="385" type="line"/>
      <point x="29" y="377"/>
      <point x="36" y="375"/>
      <point x="47" y="375" type="curve" smooth="yes"/>
    </contour>
  </outline>
</glyph>
<glyph name="cedilla" format="1">
  <advance width="79"/>
  <unicode hex="00B8"/>
  <outline>
    <contour>
      <point x="44" y="-43" type="line"/>
      <point x="39" y="-47"/>
      <point x="30" y="-50"/>
      <point x="21" y="-50" type="curve" smooth="yes"/>
      <point x="19" y="-50" type="line"/>
      <point x="19" y="-41" type="line"/>
      <point x="21" y="-41" type="line" smooth="yes"/>
      <point x="26" y="-41"/>
      <point x="30" y="-40"/>
      <point x="34" y="-37" type="curve"/>
      <point x="34" y="5" type="line"/>
      <point x="44" y="5" type="line"/>
    </contour>
  </outline>
</glyph>
<glyph name="ordmasculine" format="1">
  <advance width="79"/>
  <unicode hex="00BA"/>
  <outline>
    <contour>
      <point x="64" y="282" type="line"/>
      <point x="57" y="277"/>
      <point x="48" y="275"/>
      <point x="40" y="275" type="curve" smooth="yes"/>
      <point x="32" y="275"/>
      <point x="23" y="277"/>
      <point x="16" y="282" type="curve"/>
      <point x="16" y="715" type="line"/>
      <point x="23" y="720"/>
      <point x="32" y="722"/>
      <point x="40" y="722" type="curve" smooth="yes"/>
      <point x="48" y="722"/>
      <point x="57" y="720"/>
      <point x="64" y="715" type="curve"/>
    </contour>
    <contour>
      <point x="54" y="288" type="curve"/>
      <point x="54" y="709" type="line"/>
      <point x="50" y="712"/>
      <point x="45" y="713"/>
      <point x="40" y="713" type="curve" smooth="yes"/>
      <point x="35" y="713"/>
      <point x="30" y="712"/>
      <point x="26" y="709" type="curve"/>
      <point x="26" y="288" type="line"/>
      <point x="30" y="285"/>
      <point x="35" y="284"/>
      <point x="40" y="284" type="curve" smooth="yes"/>
      <point x="45" y="284"/>
      <point x="50" y="285"/>
    </contour>
  </outline>
</glyph>
<glyph name="guillemotright" format="1">
  <advance width="89"/>
  <unicode hex="00BB"/>
  <outline>
    <contour>
      <point x="82" y="230" type="line"/>
      <point x="42" y="57" type="line"/>
      <point x="42" y="94" type="line"/>
      <point x="74" y="240" type="line"/>
      <point x="42" y="386" type="line"/>
      <point x="42" y="423" type="line"/>
      <point x="82" y="250" type="line"/>
    </contour>
    <contour>
      <point x="48" y="230" type="line"/>
      <point x="8" y="57" type="line"/>
      <point x="8" y="94" type="line"/>
      <point x="40" y="240" type="line"/>
      <point x="8" y="386" type="line"/>
      <point x="8" y="423" type="line"/>
      <point x="48" y="250" type="line"/>
    </contour>
  </outline>
</glyph>
<glyph name="questiondown" format="1">
  <advance width="80"/>
  <unicode hex="00BF"/>
  <outline>
    <contour>
      <point x="45" y="632" type="line"/>
      <point x="35" y="632" type="line"/>
      <point x="35" y="720" type="line"/>
      <point x="45" y="720" type="line"/>
    </contour>
    <contour>
      <point x="65" y="5" type="line"/>
      <point x="58" y="0"/>
      <point x="50" y="-2"/>
      <point x="40" y="-2" type="curve" smooth="yes"/>
      <point x="30" y="-2"/>
      <point x="22" y="0"/>
      <point x="15" y="5" type="curve"/>
      <point x="15" y="274" type="line"/>
      <point x="35" y="405" type="line"/>
      <point x="35" y="587" type="line"/>
      <point x="45" y="587" type="line"/>
      <point x="45" y="405" type="line"/>
      <point x="25" y="275" type="line"/>
      <point x="25" y="11" type="line"/>
      <point x="29" y="8"/>
      <point x="35" y="7"/>
      <point x="40" y="7" type="curve" smooth="yes"/>
      <point x="45" y="7"/>
      <point x="51" y="8"/>
      <point x="55" y="11" type="curve"/>
      <point x="55" y="275" type="line"/>
      <point x="65" y="275" type="line"/>
    </contour>
  </outline>
</glyph>
<glyph name="Aring" format="1">
  <advance width="83"/>
  <unicode hex="00C5"/>
  <outline>
    <contour>
      <point x="67" y="0" type="line"/>
      <point x="57" y="0" type="line"/>
      <point x="57" y="366" type="line"/>
      <point x="27" y="366" type="line"/>
      <point x="27" y="0" type="line"/>
      <point x="17" y="0" type="line"/>
      <point x="17" y="715" type="line"/>
      <point x="24" y="720"/>
      <point x="32" y="722"/>
      <point x="42" y="722" type="curve" smooth="yes"/>
      <point x="52" y="722"/>
      <point x="60" y="720"/>
      <point x="67" y="715" type="curve"/>
    </contour>
    <contour>
      <point x="57" y="375" type="line"/>
      <point x="57" y="709" type="line"/>
      <point x="53" y="712"/>
      <point x="47" y="713"/>
      <point x="42" y="713" type="curve" smooth="yes"/>
      <point x="37" y="713"/>
      <point x="31" y="712"/>
      <point x="27" y="709" type="curve"/>
      <point x="27" y="375" type="line"/>
    </contour>
    <contour>
      <point x="66" y="747" type="line"/>
      <point x="59" y="742"/>
      <point x="50" y="740"/>
      <point x="42" y="740" type="curve" smooth="yes"/>
      <point x="34" y="740"/>
      <point x="25" y="742"/>
      <point x="18" y="747" type="curve"/>
      <point x="18" y="843" type="line"/>
      <point x="25" y="848"/>
      <point x="34" y="850"/>
      <point x="42" y="850" type="curve" smooth="yes"/>
      <point x="50" y="850"/>
      <point x="59" y="848"/>
      <point x="66" y="843" type="curve"/>
    </contour>
    <contour>
      <point x="56" y="753" type="curve"/>
      <point x="56" y="837" type="line"/>
      <point x="52" y="840"/>
      <point x="47" y="841"/>
      <point x="42" y="841" type="curve" smooth="yes"/>
      <point x="37" y="841"/>
      <point x="32" y="840"/>
      <point x="28" y="837" type="curve"/>
      <point x="28" y="753" type="line"/>
      <point x="32" y="750"/>
      <point x="37" y="749"/>
      <point x="42" y="749" type="curve" smooth="yes"/>
      <point x="47" y="749"/>
      <point x="52" y="750"/>
    </contour>
  </outline>
</glyph>
<glyph name="AE" format="1">
  <advance width="124"/>
  <unicode hex="00C6"/>
  <outline>
    <contour>
      <point x="107" y="5" type="line"/>
      <point x="100" y="0"/>
      <point x="92" y="-2"/>
      <point x="82" y="-2" type="curve" smooth="yes"/>
      <point x="72" y="-2"/>
      <point x="64" y="0"/>
      <point x="57" y="5" type="curve"/>
      <point x="57" y="366" type="line"/>
      <point x="27" y="366" type="line"/>
      <point x="27" y="0" type="line"/>
      <point x="17" y="0" type="line"/>
      <point x="17" y="715" type="line"/>
      <point x="24" y="720"/>
      <point x="32" y="722"/>
      <point x="42" y="722" type="curve" smooth="yes"/>
      <point x="50" y="722"/>
      <point x="56" y="721"/>
      <point x="62" y="718" type="curve"/>
      <point x="68" y="721"/>
      <point x="74" y="722"/>
      <point x="82" y="722" type="curve" smooth="yes"/>
      <point x="92" y="722"/>
      <point x="100" y="720"/>
      <point x="107" y="715" type="curve"/>
      <point x="107" y="445" type="line"/>
      <point x="97" y="445" type="line"/>
      <point x="97" y="709" type="line"/>
      <point x="93" y="712"/>
      <point x="87" y="713"/>
      <point x="82" y="713" type="curve" smooth="yes"/>
      <point x="77" y="713"/>
      <point x="71" y="712"/>
      <point x="67" y="709" type="curve"/>
      <point x="67" y="375" type="line"/>
      <point x="97" y="375" type="line"/>
      <point x="97" y="366" type="line"/>
      <point x="67" y="366" type="line"/>
      <point x="67" y="11" type="line"/>
      <point x="70" y="8"/>
      <point x="77" y="7"/>
      <point x="82" y="7" type="curve" smooth="yes"/>
      <point x="87" y="7"/>
      <point x="93" y="8"/>
      <point x="97" y="11" type="curve"/>
      <point x="97" y="275" type="line"/>
      <point x="107" y="275" type="line"/>
    </contour>
    <contour>
      <point x="57" y="375" type="line"/>
      <point x="57" y="709" type="line"/>
      <point x="53" y="712"/>
      <point x="47" y="713"/>
      <point x="42" y="713" type="curve" smooth="yes"/>
      <point x="37" y="713"/>
      <point x="31" y="712"/>
      <point x="27" y="709" type="curve"/>
      <point x="27" y="375" type="line"/>
    </contour>
  </outline>
</glyph>
<glyph name="Ccedilla" format="1">
  <advance width="83"/>
  <unicode hex="00C7"/>
  <outline>
    <contour>
      <point x="67" y="5" type="line"/>
      <point x="61" y="1"/>
      <point x="55" y="-1"/>
      <point x="47" y="-2" type="curve"/>
      <point x="47" y="-43" type="line"/>
      <point x="42" y="-47"/>
      <point x="33" y="-50"/>
      <point x="24" y="-50" type="curve" smooth="yes"/>
      <point x="22" y="-50" type="line"/>
      <point x="22" y="-41" type="line"/>
      <point x="24" y="-41" type="line" smooth="yes"/>
      <point x="29" y="-41"/>
      <point x="33" y="-40"/>
      <point x="37" y="-37" type="curve"/>
      <point x="37" y="-2" type="line"/>
      <point x="29" y="-1"/>
      <point x="23" y="1"/>
      <point x="17" y="5" type="curve"/>
      <point x="17" y="715" type="line"/>
      <point x="24" y="720"/>
      <point x="32" y="722"/>
      <point x="42" y="722" type="curve" smooth="yes"/>
      <point x="52" y="722"/>
      <point x="60" y="720"/>
      <point x="67" y="715" type="curve"/>
      <point x="67" y="445" type="line"/>
      <point x="57" y="445" type="line"/>
      <point x="57" y="709" type="line"/>
      <point x="53" y="712"/>
      <point x="47" y="713"/>
      <point x="42" y="713" type="curve" smooth="yes"/>
      <point x="37" y="713"/>
      <point x="31" y="712"/>
      <point x="27" y="709" type="curve"/>
      <point x="27" y="11" type="line"/>
      <point x="30" y="8"/>
      <point x="37" y="7"/>
      <point x="42" y="7" type="curve" smooth="yes"/>
      <point x="47" y="7"/>
      <point x="53" y="8"/>
      <point x="57" y="11" type="curve"/>
      <point x="57" y="275" type="line"/>
      <point x="67" y="275" type="line"/>
    </contour>
  </outline>
</glyph>
<glyph name="Eth" format="1">
  <advance width="83"/>
  <unicode hex="00D0"/>
  <outline>
    <contour>
      <point x="67" y="15" type="line"/>
      <point x="58" y="3"/>
      <point x="50" y="0"/>
      <point x="34" y="0" type="curve" smooth="yes"/>
      <point x="17" y="0" type="line"/>
      <point x="17" y="366" type="line"/>
      <point x="7" y="366" type="line"/>
      <point x="7" y="375" type="line"/>
      <point x="17" y="375" type="line"/>
      <point x="17" y="720" type="line"/>
      <point x="34" y="720" type="line" smooth="yes"/>
      <point x="50" y="720"/>
      <point x="58" y="717"/>
      <point x="67" y="705" type="curve"/>
    </contour>
    <contour>
      <point x="57" y="19" type="curve"/>
      <point x="57" y="701" type="line"/>
      <point x="52" y="709"/>
      <point x="43" y="711"/>
      <point x="34" y="711" type="curve" smooth="yes"/>
      <point x="27" y="711" type="line"/>
      <point x="27" y="375" type="line"/>
      <point x="37" y="375" type="line"/>
      <point x="37" y="366" type="line"/>
      <point x="27" y="366" type="line"/>
      <point x="27" y="9" type="line"/>
      <point x="34" y="9" type="line" smooth="yes"/>
      <point x="43" y="9"/>
      <point x="52" y="11"/>
    </contour>
  </outline>
</glyph>
<glyph name="Oslash" format="1">
  <advance width="83"/>
  <unicode hex="00D8"/>
  <outline>
    <contour>
      <point x="67" y="5" type="line"/>
      <point x="60" y="0"/>
      <point x="52" y="-2"/>
      <point x="42" y="-2" type="curve" smooth="yes"/>
      <point x="40" y="-2"/>
      <point x="38" y="-2"/>
      <point x="37" y="-2" type="curve"/>
      <point x="34" y="-55" type="line"/>
      <point x="24" y="-55" type="line"/>
      <point x="27" y="0" type="line"/>
      <point x="23" y="1"/>
      <point x="20" y="3"/>
      <point x="17" y="5" type="curve"/>
      <point x="17" y="715" type="line"/>
      <point x="24" y="720"/>
      <point x="32" y="722"/>
      <point x="42" y="722" type="curve" smooth="yes"/>
      <point x="44" y="722"/>
      <point x="46" y="722"/>
      <point x="47" y="722" type="curve"/>
      <point x="50" y="775" type="line"/>
      <point x="60" y="775" type="line"/>
      <point x="57" y="720" type="line"/>
      <point x="61" y="719"/>
      <point x="64" y="717"/>
      <point x="67" y="715" type="curve"/>
    </contour>
    <contour>
      <point x="57" y="11" type="curve"/>
      <point x="57" y="709" type="line"/>
      <point x="53" y="712"/>
      <point x="47" y="713"/>
      <point x="42" y="713" type="curve" smooth="yes"/>
      <point x="37" y="713"/>
      <point x="31" y="712"/>
      <point x="27" y="709" type="curve"/>
      <point x="27" y="11" type="line"/>
      <point x="31" y="8"/>
      <point x="37" y="7"/>
      <point x="42" y="7" type="curve" smooth="yes"/>
      <point x="47" y="7"/>
      <point x="53" y="8"/>
    </contour>
  </outline>
</glyph>
<glyph name="Thorn" format="1">
  <advance width="81"/>
  <unicode hex="00DE"/>
  <outline>
    <contour>
      <point x="67" y="171" type="line"/>
      <point x="58" y="159"/>
      <point x="50" y="156"/>
      <point x="34" y="156" type="curve" smooth="yes"/>
      <point x="27" y="156" type="line"/>
      <point x="27" y="0" type="line"/>
      <point x="17" y="0" type="line"/>
      <point x="17" y="720" type="line"/>
      <point x="27" y="720" type="line"/>
      <point x="27" y="581" type="line"/>
      <point x="34" y="581" type="line" smooth="yes"/>
      <point x="50" y="581"/>
      <point x="58" y="578"/>
      <point x="67" y="566" type="curve"/>
    </contour>
    <contour>
      <point x="57" y="175" type="curve"/>
      <point x="57" y="562" type="line"/>
      <point x="52" y="570"/>
      <point x="43" y="572"/>
      <point x="34" y="572" type="curve" smooth="yes"/>
      <point x="27" y="572" type="line"/>
      <point x="27" y="165" type="line"/>
      <point x="34" y="165" type="line" smooth="yes"/>
      <point x="45" y="165"/>
      <point x="52" y="167"/>
    </contour>
  </outline>
</glyph>
<glyph name="germandbls" format="1">
  <advance width="79"/>
  <unicode hex="00DF"/>
  <outline>
    <contour>
      <point x="64" y="7" type="line"/>
      <point x="59" y="3"/>
      <point x="48" y="0"/>
      <point x="40" y="0" type="curve"/>
      <point x="40" y="9" type="line"/>
      <point x="44" y="9"/>
      <point x="51" y="10"/>
      <point x="54" y="13" type="curve"/>
      <point x="54" y="352" type="line"/>
      <point x="46" y="364"/>
      <point x="36" y="366"/>
      <point x="28" y="366" type="curve" smooth="yes"/>
      <point x="26" y="366" type="line"/>
      <point x="26" y="0" type="line"/>
      <point x="16" y="0" type="line"/>
      <point x="16" y="715" type="line"/>
      <point x="23" y="720"/>
      <point x="32" y="722"/>
      <point x="40" y="722" type="curve" smooth="yes"/>
      <point x="48" y="722"/>
      <point x="57" y="720"/>
      <point x="64" y="715" type="curve"/>
      <point x="64" y="388" type="line"/>
      <point x="59" y="380"/>
      <point x="52" y="374"/>
      <point x="43" y="371" type="curve"/>
      <point x="52" y="368"/>
      <point x="59" y="362"/>
      <point x="64" y="354" type="curve"/>
    </contour>
    <contour>
      <point x="54" y="389" type="curve"/>
      <point x="54" y="709" type="line"/>
      <point x="50" y="712"/>
      <point x="45" y="713"/>
      <point x="40" y="713" type="curve" smooth="yes"/>
      <point x="35" y="713"/>
      <point x="30" y="712"/>
      <point x="26" y="709" type="curve"/>
      <point x="26" y="375" type="line"/>
      <point x="28" y="375" type="line" smooth="yes"/>
      <point x="36" y="375"/>
      <point x="46" y="378"/>
    </contour>
  </outline>
</glyph>
<glyph name="ae" format="1">
  <advance width="118"/>
  <unicode hex="00E6"/>
  <outline>
    <contour>
      <point x="102" y="5" type="line"/>
      <point x="95" y="0"/>
      <point x="86" y="-2"/>
      <point x="78" y="-2" type="curve" smooth="yes"/>
      <point x="72" y="-2"/>
      <point x="65" y="-1"/>
      <point x="59" y="2" type="curve"/>
      <point x="53" y="-1"/>
      <point x="46" y="-2"/>
      <point x="40" y="-2" type="curve" smooth="yes"/>
      <point x="32" y="-2"/>
      <point x="23" y="0"/>
      <point x="16" y="5" type="curve"/>
      <point x="16" y="287" type="line"/>
      <point x="23" y="291"/>
      <point x="29" y="294"/>
      <point x="38" y="294" type="curve" smooth="yes"/>
      <point x="44" y="294"/>
      <point x="49" y="293"/>
      <point x="54" y="291" type="curve"/>
      <point x="54" y="469" type="line"/>
      <point x="50" y="472"/>
      <point x="45" y="473"/>
      <point x="40" y="473" type="curve" smooth="yes"/>
      <point x="35" y="473"/>
      <point x="30" y="472"/>
      <point x="26" y="469" type="curve"/>
      <point x="26" y="352" type="line"/>
      <point x="16" y="352" type="line"/>
      <point x="16" y="475" type="line"/>
      <point x="23" y="480"/>
      <point x="32" y="482"/>
      <point x="40" y="482" type="curve" smooth="yes"/>
      <point x="46" y="482"/>
      <point x="53" y="481"/>
      <point x="59" y="478" type="curve"/>
      <point x="65" y="481"/>
      <point x="72" y="482"/>
      <point x="78" y="482" type="curve" smooth="yes"/>
      <point x="86" y="482"/>
      <point x="95" y="480"/>
      <point x="102" y="475" type="curve"/>
      <point x="102" y="243" type="line"/>
      <point x="64" y="243" type="line"/>
      <point x="64" y="11" type="line"/>
      <point x="68" y="8"/>
      <point x="73" y="7"/>
      <point x="78" y="7" type="curve" smooth="yes"/>
      <point x="83" y="7"/>
      <point x="88" y="8"/>
      <point x="92" y="11" type="curve"/>
      <point x="92" y="164" type="line"/>
      <point x="102" y="164" type="line"/>
    </contour>
    <contour>
      <point x="92" y="251" type="line"/>
      <point x="92" y="469" type="line"/>
      <point x="88" y="472"/>
      <point x="83" y="473"/>
      <point x="78" y="473" type="curve" smooth="yes"/>
      <point x="73" y="473"/>
      <point x="68" y="472"/>
      <point x="64" y="469" type="curve"/>
      <point x="64" y="251" type="line"/>
    </contour>
    <contour>
      <point x="54" y="11" type="curve"/>
      <point x="54" y="281" type="line"/>
      <point x="50" y="284"/>
      <point x="45" y="285"/>
      <point x="40" y="285" type="curve" smooth="yes"/>
      <point x="35" y="285"/>
      <point x="30" y="284"/>
      <point x="26" y="281" type="curve"/>
      <point x="26" y="11" type="line"/>
      <point x="30" y="8"/>
      <point x="35" y="7"/>
      <point x="40" y="7" type="curve" smooth="yes"/>
      <point x="45" y="7"/>
      <point x="50" y="8"/>
    </contour>
  </outline>
</glyph>
<glyph name="ccedilla" format="1">
  <advance width="79"/>
  <unicode hex="00E7"/>
  <outline>
    <contour>
      <point x="64" y="5" type="line"/>
      <point x="58" y="1"/>
      <point x="52" y="-1"/>
      <point x="45" y="-2" type="curve"/>
      <point x="45" y="-43" type="line"/>
      <point x="40" y="-47"/>
      <point x="31" y="-50"/>
      <point x="22" y="-50" type="curve" smooth="yes"/>
      <point x="20" y="-50" type="line"/>
      <point x="20" y="-41" type="line"/>
      <point x="22" y="-41" type="line" smooth="yes"/>
      <point x="27" y="-41"/>
      <point x="31" y="-40"/>
      <point x="35" y="-37" type="curve"/>
      <point x="35" y="-2" type="line"/>
      <point x="28" y="-1"/>
      <point x="22" y="1"/>
      <point x="16" y="5" type="curve"/>
      <point x="16" y="475" type="line"/>
      <point x="23" y="480"/>
      <point x="32" y="482"/>
      <point x="40" y="482" type="curve" smooth="yes"/>
      <point x="48" y="482"/>
      <point x="57" y="480"/>
      <point x="64" y="475" type="curve"/>
      <point x="64" y="316" type="line"/>
      <point x="54" y="316" type="line"/>
      <point x="54" y="469" type="line"/>
      <point x="50" y="472"/>
      <point x="45" y="473"/>
      <point x="40" y="473" type="curve" smooth="yes"/>
      <point x="35" y="473"/>
      <point x="30" y="472"/>
      <point x="26" y="469" type="curve"/>
      <point x="26" y="11" type="line"/>
      <point x="30" y="8"/>
      <point x="35" y="7"/>
      <point x="40" y="7" type="curve" smooth="yes"/>
      <point x="45" y="7"/>
      <point x="50" y="8"/>
      <point x="54" y="11" type="curve"/>
      <point x="54" y="164" type="line"/>
      <point x="64" y="164" type="line"/>
    </contour>
  </outline>
</glyph>
<glyph name="eth" format="1">
  <advance width="79"/>
  <unicode hex="00F0"/>
  <outline>
    <contour>
      <point x="64" y="5" type="line"/>
      <point x="57" y="0"/>
      <point x="48" y="-2"/>
      <point x="40" y="-2" type="curve" smooth="yes"/>
      <point x="32" y="-2"/>
      <point x="23" y="0"/>
      <point x="16" y="5" type="curve"/>
      <point x="16" y="475" type="line"/>
      <point x="23" y="479"/>
      <point x="29" y="482"/>
      <point x="38" y="482" type="curve" smooth="yes"/>
      <point x="44" y="482"/>
      <point x="49" y="481"/>
      <point x="54" y="479" type="curve"/>
      <point x="54" y="626" type="line"/>
      <point x="29" y="626" type="line"/>
      <point x="29" y="635" type="line"/>
      <point x="54" y="635" type="line"/>
      <point x="54" y="720" type="line"/>
      <point x="64" y="720" type="line"/>
      <point x="64" y="635" type="line"/>
      <point x="64" y="635" type="line"/>
      <point x="64" y="626" type="line"/>
      <point x="64" y="626" type="line"/>
    </contour>
    <contour>
      <point x="54" y="11" type="curve"/>
      <point x="54" y="469" type="line"/>
      <point x="50" y="472"/>
      <point x="45" y="473"/>
      <point x="40" y="473" type="curve" smooth="yes"/>
      <point x="35" y="473"/>
      <point x="30" y="472"/>
      <point x="26" y="469" type="curve"/>
      <point x="26" y="11" type="line"/>
      <point x="30" y="8"/>
      <point x="35" y="7"/>
      <point x="40" y="7" type="curve" smooth="yes"/>
      <point x="45" y="7"/>
      <point x="50" y="8"/>
    </contour>
  </outline>
</glyph>
<glyph name="oslash" format="1">
  <advance width="79"/>
  <unicode hex="00F8"/>
  <outline>
    <contour>
      <point x="64" y="5" type="line"/>
      <point x="57" y="0"/>
      <point x="48" y="-2"/>
      <point x="40" y="-2" type="curve" smooth="yes"/>
      <point x="39" y="-2"/>
      <point x="38" y="-2"/>
      <point x="37" y="-2" type="curve"/>
      <point x="34" y="-55" type="line"/>
      <point x="24" y="-55" type="line"/>
      <point x="27" y="0" type="line"/>
      <point x="23" y="1"/>
      <point x="19" y="3"/>
      <point x="16" y="5" type="curve"/>
      <point x="16" y="475" type="line"/>
      <point x="23" y="480"/>
      <point x="32" y="482"/>
      <point x="40" y="482" type="curve" smooth="yes"/>
      <point x="41" y="482"/>
      <point x="42" y="482"/>
      <point x="43" y="482" type="curve"/>
      <point x="46" y="535" type="line"/>
      <point x="56" y="535" type="line"/>
      <point x="53" y="480" type="line"/>
      <point x="57" y="479"/>
      <point x="61" y="477"/>
      <point x="64" y="475" type="curve"/>
    </contour>
    <contour>
      <point x="54" y="11" type="curve"/>
      <point x="54" y="469" type="line"/>
      <point x="50" y="472"/>
      <point x="45" y="473"/>
      <point x="40" y="473" type="curve" smooth="yes"/>
      <point x="35" y="473"/>
      <point x="30" y="472"/>
      <point x="26" y="469" type="curve"/>
      <point x="26" y="11" type="line"/>
      <point x="30" y="8"/>
      <point x="35" y="7"/>
      <point x="40" y="7" type="curve" smooth="yes"/>
      <point x="45" y="7"/>
      <point x="50" y="8"/>
    </contour>
  </outline>
</glyph>
<glyph name="dotlessi" format="1">
  <advance width="43"/>
  <unicode hex="0131"/>
  <outline>
    <contour>
      <point x="27" y="0" type="line"/>
      <point x="17" y="0" type="line"/>
      <point x="17" y="480" type="line"/>
      <point x="27" y="480" type="line"/>
    </contour>
  </outline>
</glyph>
<glyph name="Lslash" format="1">
  <advance width="63"/>
  <unicode hex="0141"/>
  <outline>
    <contour>
      <point x="55" y="0" type="line"/>
      <point x="17" y="0" type="line"/>
      <point x="17" y="352" type="line"/>
      <point x="7" y="347" type="line"/>
      <point x="7" y="358" type="line"/>
      <point x="17" y="363" type="line"/>
      <point x="17" y="720" type="line"/>
      <point x="27" y="720" type="line"/>
      <point x="27" y="368" type="line"/>
      <point x="47" y="378" type="line"/>
      <point x="47" y="367" type="line"/>
      <point x="27" y="357" type="line"/>
      <point x="27" y="9" type="line"/>
      <point x="55" y="9" type="line"/>
    </contour>
  </outline>
</glyph>
<glyph name="lslash" format="1">
  <advance width="43"/>
  <unicode hex="0142"/>
  <outline>
    <contour>
      <point x="37" y="362" type="line"/>
      <point x="27" y="357" type="line"/>
      <point x="27" y="0" type="line"/>
      <point x="17" y="0" type="line"/>
      <point x="17" y="352" type="line"/>
      <point x="7" y="347" type="line"/>
      <point x="7" y="358" type="line"/>
      <point x="17" y="363" type="line"/>
      <point x="17" y="720" type="line"/>
      <point x="27" y="720" type="line"/>
      <point x="27" y="368" type="line"/>
      <point x="37" y="373" type="line"/>
    </contour>
  </outline>
</glyph>
<glyph name="oe" format="1">
  <advance width="118"/>
  <unicode hex="0153"/>
  <outline>
    <contour>
      <point x="102" y="5" type="line"/>
      <point x="95" y="0"/>
      <point x="86" y="-2"/>
      <point x="78" y="-2" type="curve" smooth="yes"/>
      <point x="72" y="-2"/>
      <point x="65" y="-1"/>
      <point x="59" y="2" type="curve"/>
      <point x="53" y="-1"/>
      <point x="46" y="-2"/>
      <point x="40" y="-2" type="curve" smooth="yes"/>
      <point x="32" y="-2"/>
      <point x="23" y="0"/>
      <point x="16" y="5" type="curve"/>
      <point x="16" y="475" type="line"/>
      <point x="23" y="480"/>
      <point x="32" y="482"/>
      <point x="40" y="482" type="curve" smooth="yes"/>
      <point x="46" y="482"/>
      <point x="53" y="481"/>
      <point x="59" y="478" type="curve"/>
      <point x="65" y="481"/>
      <point x="72" y="482"/>
      <point x="78" y="482" type="curve" smooth="yes"/>
      <point x="86" y="482"/>
      <point x="95" y="480"/>
      <point x="102" y="475" type="curve"/>
      <point x="102" y="243" type="line"/>
      <point x="64" y="243" type="line"/>
      <point x="64" y="11" type="line"/>
      <point x="68" y="8"/>
      <point x="73" y="7"/>
      <point x="78" y="7" type="curve" smooth="yes"/>
      <point x="83" y="7"/>
      <point x="88" y="8"/>
      <point x="92" y="11" type="curve"/>
      <point x="92" y="164" type="line"/>
      <point x="102" y="164" type="line"/>
    </contour>
    <contour>
      <point x="92" y="251" type="line"/>
      <point x="92" y="469" type="line"/>
      <point x="88" y="472"/>
      <point x="83" y="473"/>
      <point x="78" y="473" type="curve" smooth="yes"/>
      <point x="73" y="473"/>
      <point x="68" y="472"/>
      <point x="64" y="469" type="curve"/>
      <point x="64" y="251" type="line"/>
    </contour>
    <contour>
      <point x="54" y="11" type="curve"/>
      <point x="54" y="469" type="line"/>
      <point x="50" y="472"/>
      <point x="45" y="473"/>
      <point x="40" y="473" type="curve" smooth="yes"/>
      <point x="35" y="473"/>
      <point x="30" y="472"/>
      <point x="26" y="469" type="curve"/>
      <point x="26" y="11" type="line"/>
      <point x="30" y="8"/>
      <point x="35" y="7"/>
      <point x="40" y="7" type="curve" smooth="yes"/>
      <point x="45" y="7"/>
      <point x="50" y="8"/>
    </contour>
  </outline>
</glyph>
<glyph name="circumflex" format="1">
  <advance width="79"/>
  <unicode hex="02C6"/>
  <outline>
    <contour>
      <point x="62" y="515" type="line"/>
      <point x="52" y="515" type="line"/>
      <point x="39" y="603" type="line"/>
      <point x="26" y="515" type="line"/>
      <point x="16" y="515" type="line"/>
      <point x="34" y="625" type="line"/>
      <point x="44" y="625" type="line"/>
    </contour>
  </outline>
</glyph>
<glyph name="caron" format="1">
  <advance width="79"/>
  <unicode hex="02C7"/>
  <outline>
    <contour>
      <point x="62" y="625" type="line"/>
      <point x="44" y="515" type="line"/>
      <point x="34" y="515" type="line"/>
      <point x="16" y="625" type="line"/>
      <point x="26" y="625" type="line"/>
      <point x="39" y="537" type="line"/>
      <point x="52" y="625" type="line"/>
    </contour>
  </outline>
</glyph>
<glyph name="breve" format="1">
  <advance width="79"/>
  <unicode hex="02D8"/>
  <outline>
    <contour>
      <point x="64" y="522" type="line"/>
      <point x="57" y="517"/>
      <point x="48" y="515"/>
      <point x="40" y="515" type="curve" smooth="yes"/>
      <point x="32" y="515"/>
      <point x="23" y="517"/>
      <point x="16" y="522" type="curve"/>
      <point x="16" y="625" type="line"/>
      <point x="26" y="625" type="line"/>
      <point x="26" y="528" type="line"/>
      <point x="30" y="525"/>
      <point x="35" y="524"/>
      <point x="40" y="524" type="curve" smooth="yes"/>
      <point x="45" y="524"/>
      <point x="50" y="525"/>
      <point x="54" y="528" type="curve"/>
      <point x="54" y="625" type="line"/>
      <point x="64" y="625" type="line"/>
    </contour>
  </outline>
</glyph>
<glyph name="dotaccent" format="1">
  <advance width="79"/>
  <unicode hex="02D9"/>
  <outline>
    <contour>
      <point x="44" y="515" type="line"/>
      <point x="34" y="515" type="line"/>
      <point x="34" y="625" type="line"/>
      <point x="44" y="625" type="line"/>
    </contour>
  </outline>
</glyph>
<glyph name="ring" format="1">
  <advance width="79"/>
  <unicode hex="02DA"/>
  <outline>
    <contour>
      <point x="64" y="522" type="line"/>
      <point x="57" y="517"/>
      <point x="48" y="515"/>
      <point x="40" y="515" type="curve" smooth="yes"/>
      <point x="32" y="515"/>
      <point x="23" y="517"/>
      <point x="16" y="522" type="curve"/>
      <point x="16" y="618" type="line"/>
      <point x="23" y="623"/>
      <point x="32" y="625"/>
      <point x="40" y="625" type="curve" smooth="yes"/>
      <point x="48" y="625"/>
      <point x="57" y="623"/>
      <point x="64" y="618" type="curve"/>
    </contour>
    <contour>
      <point x="54" y="528" type="curve"/>
      <point x="54" y="612" type="line"/>
      <point x="50" y="615"/>
      <point x="45" y="616"/>
      <point x="40" y="616" type="curve" smooth="yes"/>
      <point x="35" y="616"/>
      <point x="30" y="615"/>
      <point x="26" y="612" type="curve"/>
      <point x="26" y="528" type="line"/>
      <point x="30" y="525"/>
      <point x="35" y="524"/>
      <point x="40" y="524" type="curve" smooth="yes"/>
      <point x="45" y="524"/>
      <point x="50" y="525"/>
    </contour>
  </outline>
</glyph>
<glyph name="ogonek" format="1">
  <advance width="79"/>
  <unicode hex="02DB"/>
  <outline>
    <contour>
      <point x="59" y="-50" type="line"/>
      <point x="57" y="-50" type="line" smooth="yes"/>
      <point x="48" y="-50"/>
      <point x="39" y="-47"/>
      <point x="34" y="-43" type="curve"/>
      <point x="34" y="5" type="line"/>
      <point x="44" y="5" type="line"/>
      <point x="44" y="-37" type="line"/>
      <point x="48" y="-40"/>
      <point x="52" y="-41"/>
      <point x="57" y="-41" type="curve" smooth="yes"/>
      <point x="59" y="-41" type="line"/>
    </contour>
  </outline>
</glyph>
<glyph name="tilde" format="1">
  <advance width="79"/>
  <unicode hex="02DC"/>
  <outline>
    <contour>
      <point x="62" y="515" type="line"/>
      <point x="54" y="515" type="line"/>
      <point x="26" y="595" type="line"/>
      <point x="26" y="515" type="line"/>
      <point x="17" y="515" type="line"/>
      <point x="17" y="625" type="line"/>
      <point x="25" y="625" type="line"/>
      <point x="53" y="545" type="line"/>
      <point x="53" y="625" type="line"/>
      <point x="62" y="625" type="line"/>
    </contour>
  </outline>
</glyph>
<glyph name="hungarumlaut" format="1">
  <advance width="79"/>
  <unicode hex="02DD"/>
  <outline>
    <contour>
      <point x="74" y="625" type="line"/>
      <point x="45" y="515" type="line"/>
      <point x="35" y="515" type="line"/>
      <point x="64" y="625" type="line"/>
    </contour>
    <contour>
      <point x="44" y="625" type="line"/>
      <point x="15" y="515" type="line"/>
      <point x="5" y="515" type="line"/>
      <point x="34" y="625" type="line"/>
    </contour>
  </outline>
</glyph>
<glyph name="endash" format="1">
  <advance width="98"/>
  <unicode hex="2013"/>
  <outline>
    <contour>
      <point x="90" y="316" type="line"/>
      <point x="8" y="316" type="line"/>
      <point x="8" y="325" type="line"/>
      <point x="90" y="325" type="line"/>
    </contour>
  </outline>
</glyph>
<glyph name="emdash" format="1">
  <advance width="148"/>
  <unicode hex="2014"/>
  <outline>
    <contour>
      <point x="140" y="316" type="line"/>
      <point x="8" y="316" type="line"/>
      <point x="8" y="325" type="line"/>
      <point x="140" y="325" type="line"/>
    </contour>
  </outline>
</glyph>
<glyph name="quoteleft" format="1">
  <advance width="42"/>
  <unicode hex="2018"/>
  <unicode hex="02BB"/>
  <outline>
    <contour>
      <point x="32" y="495" type="line"/>
      <point x="22" y="495" type="line"/>
      <point x="10" y="720" type="line"/>
      <point x="20" y="720" type="line"/>
    </contour>
  </outline>
</glyph>
<glyph name="quoteright" format="1">
  <advance width="42"/>
  <unicode hex="2019"/>
  <unicode hex="02BC"/>
  <outline>
    <contour>
      <point x="32" y="720" type="line"/>
      <point x="20" y="495" type="line"/>
      <point x="10" y="495" type="line"/>
      <point x="22" y="720" type="line"/>
    </contour>
  </outline>
</glyph>
<glyph name="quotesinglbase" format="1">
  <advance width="42"/>
  <unicode hex="201A"/>
  <outline>
    <contour>
      <point x="28" y="88" type="line"/>
      <point x="16" y="-137" type="line"/>
      <point x="6" y="-137" type="line"/>
      <point x="18" y="88" type="line"/>
    </contour>
  </outline>
</glyph>
<glyph name="quotedblright" format="1">
  <advance width="76"/>
  <unicode hex="201D"/>
  <outline>
    <contour>
      <point x="66" y="720" type="line"/>
      <point x="54" y="495" type="line"/>
      <point x="44" y="495" type="line"/>
      <point x="56" y="720" type="line"/>
    </contour>
    <contour>
      <point x="32" y="720" type="line"/>
      <point x="20" y="495" type="line"/>
      <point x="10" y="495" type="line"/>
      <point x="22" y="720" type="line"/>
    </contour>
  </outline>
</glyph>
<glyph name="quotedblbase" format="1">
  <advance width="76"/>
  <unicode hex="201E"/>
  <outline>
    <contour>
      <point x="62" y="88" type="line"/>
      <point x="50" y="-137" type="line"/>
      <point x="40" y="-137" type="line"/>
      <point x="52" y="88" type="line"/>
    </contour>
    <contour>
      <point x="28" y="88" type="line"/>
      <point x="16" y="-137" type="line"/>
      <point x="6" y="-137" type="line"/>
      <point x="18" y="88" type="line"/>
    </contour>
  </outline>
</glyph>
<glyph name="dagger" format="1">
  <advance width="52"/>
  <unicode hex="2020"/>
  <outline>
    <contour>
      <point x="51" y="471" type="line"/>
      <point x="31" y="471" type="line"/>
      <point x="31" y="0" type="line"/>
      <point x="21" y="0" type="line"/>
      <point x="21" y="471" type="line"/>
      <point x="1" y="471" type="line"/>
      <point x="1" y="480" type="line"/>
      <point x="21" y="480" type="line"/>
      <point x="21" y="720" type="line"/>
      <point x="31" y="720" type="line"/>
      <point x="31" y="480" type="line"/>
      <point x="51" y="480" type="line"/>
    </contour>
  </outline>
</glyph>
<glyph name="daggerdbl" format="1">
  <advance width="52"/>
  <unicode hex="2021"/>
  <outline>
    <contour>
      <point x="51" y="284" type="line"/>
      <point x="31" y="284" type="line"/>
      <point x="31" y="0" type="line"/>
      <point x="21" y="0" type="line"/>
      <point x="21" y="284" type="line"/>
      <point x="1" y="284" type="line"/>
      <point x="1" y="293" type="line"/>
      <point x="21" y="293" type="line"/>
      <point x="21" y="471" type="line"/>
      <point x="1" y="471" type="line"/>
      <point x="1" y="480" type="line"/>
      <point x="21" y="480" type="line"/>
      <point x="21" y="720" type="line"/>
      <point x="31" y="720" type="line"/>
      <point x="31" y="480" type="line"/>
      <point x="51" y="480" type="line"/>
      <point x="51" y="471" type="line"/>
      <point x="31" y="471" type="line"/>
      <point x="31" y="293" type="line"/>
      <point x="51" y="293" type="line"/>
    </contour>
  </outline>
</glyph>
<glyph name="bullet" format="1">
  <advance width="79"/>
  <unicode hex="2022"/>
  <outline>
    <contour>
      <point x="64" y="273" type="line"/>
      <point x="57" y="268"/>
      <point x="48" y="266"/>
      <point x="40" y="266" type="curve" smooth="yes"/>
      <point x="32" y="266"/>
      <point x="23" y="268"/>
      <point x="16" y="273" type="curve"/>
      <point x="16" y="473" type="line"/>
      <point x="23" y="478"/>
      <point x="32" y="480"/>
      <point x="40" y="480" type="curve" smooth="yes"/>
      <point x="48" y="480"/>
      <point x="57" y="478"/>
      <point x="64" y="473" type="curve"/>
    </contour>
  </outline>
</glyph>
<glyph name="ellipsis" format="1">
  <advance width="126"/>
  <unicode hex="2026"/>
  <outline>
    <contour>
      <point x="110" y="0" type="line"/>
      <point x="100" y="0" type="line"/>
      <point x="100" y="88" type="line"/>
      <point x="110" y="88" type="line"/>
    </contour>
    <contour>
      <point x="68" y="0" type="line"/>
      <point x="58" y="0" type="line"/>
      <point x="58" y="88" type="line"/>
      <point x="68" y="88" type="line"/>
    </contour>
    <contour>
      <point x="26" y="0" type="line"/>
      <point x="16" y="0" type="line"/>
      <point x="16" y="88" type="line"/>
      <point x="26" y="88" type="line"/>
    </contour>
  </outline>
</glyph>
<glyph name="guilsinglleft" format="1">
  <advance width="55"/>
  <unicode hex="2039"/>
  <outline>
    <contour>
      <point x="47" y="57" type="line"/>
      <point x="7" y="230" type="line"/>
      <point x="7" y="250" type="line"/>
      <point x="47" y="423" type="line"/>
      <point x="47" y="386" type="line"/>
      <point x="15" y="240" type="line"/>
      <point x="47" y="94" type="line"/>
    </contour>
  </outline>
</glyph>
<glyph name="guilsinglright" format="1">
  <advance width="55"/>
  <unicode hex="203A"/>
  <outline>
    <contour>
      <point x="48" y="230" type="line"/>
      <point x="8" y="57" type="line"/>
      <point x="8" y="94" type="line"/>
      <point x="40" y="240" type="line"/>
      <point x="8" y="386" type="line"/>
      <point x="8" y="423" type="line"/>
      <point x="48" y="250" type="line"/>
    </contour>
  </outline>
</glyph>
<glyph name="fraction" format="1">
  <advance width="71"/>
  <unicode hex="2044"/>
  <unicode hex="2215"/>
  <outline>
    <contour>
      <point x="59" y="720" type="line"/>
      <point x="22" y="0" type="line"/>
      <point x="12" y="0" type="line"/>
      <point x="49" y="720" type="line"/>
    </contour>
  </outline>
</glyph>
<glyph name="uni2117" format="1">
  <advance width="164"/>
  <unicode hex="2117"/>
  <outline>
    <contour>
      <point x="147" y="16" type="line"/>
      <point x="127" y="3"/>
      <point x="110" y="-2"/>
      <point x="82" y="-2" type="curve" smooth="yes"/>
      <point x="54" y="-2"/>
      <point x="37" y="3"/>
      <point x="17" y="16" type="curve"/>
      <point x="17" y="704" type="line"/>
      <point x="37" y="717"/>
      <point x="54" y="722"/>
      <point x="82" y="722" type="curve" smooth="yes"/>
      <point x="110" y="722"/>
      <point x="127" y="717"/>
      <point x="147" y="704" type="curve"/>
    </contour>
    <contour>
      <point x="137" y="21" type="curve"/>
      <point x="137" y="699" type="line"/>
      <point x="120" y="711"/>
      <point x="103" y="713"/>
      <point x="82" y="713" type="curve" smooth="yes"/>
      <point x="61" y="713"/>
      <point x="44" y="711"/>
      <point x="27" y="699" type="curve"/>
      <point x="27" y="21" type="line"/>
      <point x="44" y="9"/>
      <point x="61" y="7"/>
      <point x="82" y="7" type="curve" smooth="yes"/>
      <point x="103" y="7"/>
      <point x="120" y="9"/>
    </contour>
    <contour>
      <point x="107" y="381" type="line"/>
      <point x="98" y="369"/>
      <point x="90" y="366"/>
      <point x="74" y="366" type="curve" smooth="yes"/>
      <point x="67" y="366" type="line"/>
      <point x="67" y="35" type="line"/>
      <point x="57" y="35" type="line"/>
      <point x="57" y="685" type="line"/>
      <point x="74" y="685" type="line" smooth="yes"/>
      <point x="90" y="685"/>
      <point x="98" y="682"/>
      <point x="107" y="670" type="curve"/>
    </contour>
    <contour>
      <point x="97" y="385" type="curve"/>
      <point x="97" y="666" type="line"/>
      <point x="92" y="674"/>
      <point x="83" y="676"/>
      <point x="74" y="676" type="curve" smooth="yes"/>
      <point x="67" y="676" type="line"/>
      <point x="67" y="375" type="line"/>
      <point x="74" y="375" type="line" smooth="yes"/>
      <point x="85" y="375"/>
      <point x="92" y="377"/>
    </contour>
  </outline>
</glyph>
<glyph name="trademark" format="1">
  <advance width="178"/>
  <unicode hex="2122"/>
  <outline>
    <contour>
      <point x="163" y="275" type="line"/>
      <point x="153" y="275" type="line"/>
      <point x="153" y="707" type="line"/>
      <point x="145" y="711"/>
      <point x="135" y="713"/>
      <point x="123" y="713" type="curve"/>
      <point x="123" y="275" type="line"/>
      <point x="113" y="275" type="line"/>
      <point x="113" y="713" type="line"/>
      <point x="101" y="713"/>
      <point x="91" y="711"/>
      <point x="83" y="707" type="curve"/>
      <point x="83" y="275" type="line"/>
      <point x="73" y="275" type="line"/>
      <point x="73" y="712" type="line"/>
      <point x="85" y="719"/>
      <point x="101" y="722"/>
      <point x="118" y="722" type="curve" smooth="yes"/>
      <point x="135" y="722"/>
      <point x="151" y="719"/>
      <point x="163" y="712" type="curve"/>
    </contour>
    <contour>
      <point x="58" y="711" type="line"/>
      <point x="38" y="711" type="line"/>
      <point x="38" y="275" type="line"/>
      <point x="28" y="275" type="line"/>
      <point x="28" y="711" type="line"/>
      <point x="8" y="711" type="line"/>
      <point x="8" y="720" type="line"/>
      <point x="58" y="720" type="line"/>
    </contour>
  </outline>
</glyph>
<glyph name="radical" format="1">
  <advance width="75"/>
  <unicode hex="221A"/>
  <outline>
    <contour>
      <point x="68" y="720" type="line"/>
      <point x="37" y="0" type="line"/>
      <point x="27" y="0" type="line"/>
      <point x="8" y="311" type="line"/>
      <point x="18" y="311" type="line"/>
      <point x="32" y="53" type="line"/>
      <point x="58" y="720" type="line"/>
    </contour>
  </outline>
</glyph>
<glyph name="fl" format="1">
  <advance width="95"/>
  <unicode hex="FB02"/>
  <outline>
    <contour>
      <point x="79" y="0" type="line"/>
      <point x="69" y="0" type="line"/>
      <point x="69" y="720" type="line"/>
      <point x="79" y="720" type="line"/>
    </contour>
    <contour>
      <point x="47" y="471" type="line"/>
      <point x="26" y="471" type="line"/>
      <point x="26" y="0" type="line"/>
      <point x="16" y="0" type="line"/>
      <point x="16" y="471" type="line"/>
      <point x="16" y="471" type="line"/>
      <point x="16" y="480" type="line"/>
      <point x="16" y="480" type="line"/>
      <point x="16" y="713" type="line"/>
      <point x="21" y="717"/>
      <point x="31" y="720"/>
      <point x="41" y="720" type="curve" smooth="yes"/>
      <point x="47" y="720" type="line"/>
      <point x="47" y="711" type="line"/>
      <point x="41" y="711" type="line" smooth="yes"/>
      <point x="36" y="711"/>
      <point x="31" y="710"/>
      <point x="26" y="707" type="curve"/>
      <point x="26" y="480" type="line"/>
      <point x="47" y="480" type="line"/>
    </contour>
  </outline>
</glyph>
<glyph name="nbspace" format="1">
  <advance width="26"/>
  <outline>
    <contour>
      <point x="4" y="0" type="move"/>
    </contour>
  </outline>
</glyph>
<glyph name="registered" format="1">
  <advance width="164"/>
  <outline>
    <contour>
      <point x="147" y="16" type="line"/>
      <point x="127" y="3"/>
      <point x="110" y="-2"/>
      <point x="82" y="-2" type="curve" smooth="yes"/>
      <point x="54" y="-2"/>
      <point x="37" y="3"/>
      <point x="17" y="16" type="curve"/>
      <point x="17" y="704" type="line"/>
      <point x="37" y="717"/>
      <point x="54" y="722"/>
      <point x="82" y="722" type="curve" smooth="yes"/>
      <point x="110" y="722"/>
      <point x="127" y="717"/>
      <point x="147" y="704" type="curve"/>
    </contour>
    <contour>
      <point x="137" y="21" type="curve"/>
      <point x="137" y="699" type="line"/>
      <point x="120" y="711"/>
      <point x="103" y="713"/>
      <point x="82" y="713" type="curve" smooth="yes"/>
      <point x="61" y="713"/>
      <point x="44" y="711"/>
      <point x="27" y="699" type="curve"/>
      <point x="27" y="21" type="line"/>
      <point x="44" y="9"/>
      <point x="61" y="7"/>
      <point x="82" y="7" type="curve" smooth="yes"/>
      <point x="103" y="7"/>
      <point x="120" y="9"/>
    </contour>
    <contour>
      <point x="107" y="35" type="line"/>
      <point x="97" y="35" type="line"/>
      <point x="97" y="352" type="line"/>
      <point x="89" y="364"/>
      <point x="79" y="366"/>
      <point x="71" y="366" type="curve" smooth="yes"/>
      <point x="67" y="366" type="line"/>
      <point x="67" y="35" type="line"/>
      <point x="57" y="35" type="line"/>
      <point x="57" y="685" type="line"/>
      <point x="74" y="685" type="line" smooth="yes"/>
      <point x="90" y="685"/>
      <point x="98" y="682"/>
      <point x="107" y="670" type="curve"/>
      <point x="107" y="388" type="line"/>
      <point x="102" y="380"/>
      <point x="95" y="374"/>
      <point x="86" y="371" type="curve"/>
      <point x="95" y="368"/>
      <point x="102" y="362"/>
      <point x="107" y="354" type="curve"/>
    </contour>
    <contour>
      <point x="97" y="389" type="curve"/>
      <point x="97" y="666" type="line"/>
      <point x="92" y="674"/>
      <point x="83" y="676"/>
      <point x="74" y="676" type="curve" smooth="yes"/>
      <point x="67" y="676" type="line"/>
      <point x="67" y="375" type="line"/>
      <point x="71" y="375" type="line" smooth="yes"/>
      <point x="79" y="375"/>
      <point x="89" y="378"/>
    </contour>
  </outline>
</glyph>
